<?xml version="1.0" standalone="no"?>
<!DOCTYPE svg PUBLIC "-//W3C//DTD SVG 20010904//EN"
 "http://www.w3.org/TR/2001/REC-SVG-20010904/DTD/svg10.dtd">
<svg version="1.0" xmlns="http://www.w3.org/2000/svg"
 width="160.000000pt" height="160.000000pt" viewBox="0 0 160.000000 160.000000"
 preserveAspectRatio="xMidYMid meet">
<metadata>
Created by potrace 1.14, written by Peter Selinger 2001-2017
</metadata>
<g transform="translate(0.000000,160.000000) scale(0.100000,-0.100000)"
fill="#000000" stroke="none">
<path d="M742 1433 c-29 -54 -67 -125 -85 -158 -18 -33 -86 -159 -151 -280
-66 -121 -130 -240 -144 -265 -14 -25 -43 -79 -65 -120 -22 -41 -64 -119 -93
-173 -30 -53 -54 -99 -54 -102 0 -2 -13 -26 -28 -52 -16 -26 -50 -87 -76 -136
l-47 -87 402 2 402 3 25 45 c13 25 46 88 74 140 75 141 91 170 97 170 7 0 25
-32 101 -175 29 -55 63 -118 76 -140 l22 -40 201 -3 202 -2 -29 52 c-16 29
-49 89 -72 133 -46 86 -56 105 -205 380 -54 99 -114 209 -133 245 -19 36 -61
112 -92 170 -32 58 -79 146 -105 195 -26 50 -51 95 -55 100 -4 6 -29 52 -55
103 -27 50 -51 92 -55 92 -4 0 -30 -44 -58 -97z m86 -685 c12 -24 38 -72 58
-108 20 -36 54 -98 76 -137 l39 -73 -200 0 -201 0 50 93 c28 50 71 131 97 180
26 48 49 87 53 87 4 0 16 -19 28 -42z"/>
</g>
</svg>
