<svg width="20" height="20" viewBox="0 0 20 20" fill="none" xmlns="http://www.w3.org/2000/svg">
<path d="M12.5 9.5V5H14V9.5H12.5ZM9 14.9375C8.55556 14.8264 8.19444 14.5841 7.91667 14.2107C7.63889 13.8373 7.5 13.406 7.5 12.9167V5H9V14.9375ZM9.5 18C8.23611 18 7.17014 17.5451 6.30208 16.6354C5.43403 15.7257 5 14.6319 5 13.3542V5.25C5 4.34722 5.31597 3.57986 5.94792 2.94792C6.57986 2.31597 7.34722 2 8.25 2C9.16667 2 9.9375 2.33333 10.5625 3C11.1875 3.66667 11.5 4.46528 11.5 5.39583V11.75H10V5.25C10 4.76389 9.82986 4.35069 9.48958 4.01042C9.14931 3.67014 8.73474 3.5 8.2459 3.5C7.75705 3.5 7.34385 3.67708 7.00631 4.03125C6.66877 4.38542 6.5 4.80556 6.5 5.29167V13.5C6.5 14.3333 6.79167 15.0382 7.375 15.6146C7.95833 16.191 8.66667 16.4861 9.5 16.5C9.94444 16.5139 10.3611 16.4236 10.75 16.2292C11.1389 16.0347 11.4722 15.7778 11.75 15.4583V17.3958C11.4167 17.5903 11.0598 17.7396 10.6794 17.8438C10.2989 17.9479 9.90579 18 9.5 18ZM13.25 17V14.75H11V13.25H13.25V11H14.75V13.25H17V14.75H14.75V17H13.25Z" fill="#5DAABF"/>
</svg>
