<svg width="20" height="20" viewBox="0 0 20 20" fill="none" xmlns="http://www.w3.org/2000/svg">
<path d="M6.7456 9.25C6.95687 9.25 7.13542 9.17855 7.28125 9.03565C7.42708 8.89273 7.5 8.71565 7.5 8.5044C7.5 8.29313 7.42855 8.11458 7.28565 7.96875C7.14273 7.82292 6.96565 7.75 6.7544 7.75C6.54313 7.75 6.36458 7.82145 6.21875 7.96435C6.07292 8.10727 6 8.28435 6 8.4956C6 8.70687 6.07145 8.88542 6.21435 9.03125C6.35727 9.17708 6.53435 9.25 6.7456 9.25ZM9.9956 9.25C10.2069 9.25 10.3854 9.17855 10.5312 9.03565C10.6771 8.89273 10.75 8.71565 10.75 8.5044C10.75 8.29313 10.6785 8.11458 10.5356 7.96875C10.3927 7.82292 10.2156 7.75 10.0044 7.75C9.79313 7.75 9.61458 7.82145 9.46875 7.96435C9.32292 8.10727 9.25 8.28435 9.25 8.4956C9.25 8.70687 9.32145 8.88542 9.46435 9.03125C9.60727 9.17708 9.78435 9.25 9.9956 9.25ZM13.2456 9.25C13.4569 9.25 13.6354 9.17855 13.7812 9.03565C13.9271 8.89273 14 8.71565 14 8.5044C14 8.29313 13.9285 8.11458 13.7856 7.96875C13.6427 7.82292 13.4656 7.75 13.2544 7.75C13.0431 7.75 12.8646 7.82145 12.7188 7.96435C12.5729 8.10727 12.5 8.28435 12.5 8.4956C12.5 8.70687 12.5715 8.88542 12.7144 9.03125C12.8573 9.17708 13.0344 9.25 13.2456 9.25ZM2 18V3.5C2 3.0875 2.14688 2.73438 2.44063 2.44063C2.73438 2.14688 3.0875 2 3.5 2H16.5C16.9125 2 17.2656 2.14688 17.5594 2.44063C17.8531 2.73438 18 3.0875 18 3.5V13.5C18 13.9125 17.8531 14.2656 17.5594 14.5594C17.2656 14.8531 16.9125 15 16.5 15H5L2 18ZM4.375 13.5H16.5V3.5H3.5V14.375L4.375 13.5Z" fill="white"/>
</svg>
