<svg width="30" height="30" viewBox="0 0 30 30" fill="none" xmlns="http://www.w3.org/2000/svg">
<path d="M8.24337 24C7.62279 24 7.09375 23.779 6.65625 23.3371C6.21875 22.8952 6 22.3639 6 21.7434C6 21.1228 6.22096 20.5938 6.66288 20.1562C7.10481 19.7188 7.63606 19.5 8.25663 19.5C8.87721 19.5 9.40625 19.721 9.84375 20.1629C10.2812 20.6048 10.5 21.1361 10.5 21.7566C10.5 22.3772 10.279 22.9062 9.83712 23.3438C9.39519 23.7812 8.86394 24 8.24337 24ZM14.9934 24C14.3728 24 13.8438 23.779 13.4062 23.3371C12.9688 22.8952 12.75 22.3639 12.75 21.7434C12.75 21.1228 12.971 20.5938 13.4129 20.1562C13.8548 19.7188 14.3861 19.5 15.0066 19.5C15.6272 19.5 16.1562 19.721 16.5938 20.1629C17.0312 20.6048 17.25 21.1361 17.25 21.7566C17.25 22.3772 17.029 22.9062 16.5871 23.3438C16.1452 23.7812 15.6139 24 14.9934 24ZM21.7434 24C21.1228 24 20.5938 23.779 20.1562 23.3371C19.7188 22.8952 19.5 22.3639 19.5 21.7434C19.5 21.1228 19.721 20.5938 20.1629 20.1562C20.6048 19.7188 21.1361 19.5 21.7566 19.5C22.3772 19.5 22.9062 19.721 23.3438 20.1629C23.7812 20.6048 24 21.1361 24 21.7566C24 22.3772 23.779 22.9062 23.3371 23.3438C22.8952 23.7812 22.3639 24 21.7434 24ZM8.24337 17.25C7.62279 17.25 7.09375 17.029 6.65625 16.5871C6.21875 16.1452 6 15.6139 6 14.9934C6 14.3728 6.22096 13.8438 6.66288 13.4062C7.10481 12.9688 7.63606 12.75 8.25663 12.75C8.87721 12.75 9.40625 12.971 9.84375 13.4129C10.2812 13.8548 10.5 14.3861 10.5 15.0066C10.5 15.6272 10.279 16.1562 9.83712 16.5938C9.39519 17.0312 8.86394 17.25 8.24337 17.25ZM14.9934 17.25C14.3728 17.25 13.8438 17.029 13.4062 16.5871C12.9688 16.1452 12.75 15.6139 12.75 14.9934C12.75 14.3728 12.971 13.8438 13.4129 13.4062C13.8548 12.9688 14.3861 12.75 15.0066 12.75C15.6272 12.75 16.1562 12.971 16.5938 13.4129C17.0312 13.8548 17.25 14.3861 17.25 15.0066C17.25 15.6272 17.029 16.1562 16.5871 16.5938C16.1452 17.0312 15.6139 17.25 14.9934 17.25ZM21.7434 17.25C21.1228 17.25 20.5938 17.029 20.1562 16.5871C19.7188 16.1452 19.5 15.6139 19.5 14.9934C19.5 14.3728 19.721 13.8438 20.1629 13.4062C20.6048 12.9688 21.1361 12.75 21.7566 12.75C22.3772 12.75 22.9062 12.971 23.3438 13.4129C23.7812 13.8548 24 14.3861 24 15.0066C24 15.6272 23.779 16.1562 23.3371 16.5938C22.8952 17.0312 22.3639 17.25 21.7434 17.25ZM8.24337 10.5C7.62279 10.5 7.09375 10.279 6.65625 9.83713C6.21875 9.39519 6 8.86394 6 8.24338C6 7.62279 6.22096 7.09375 6.66288 6.65625C7.10481 6.21875 7.63606 6 8.25663 6C8.87721 6 9.40625 6.22096 9.84375 6.66287C10.2812 7.10481 10.5 7.63606 10.5 8.25662C10.5 8.87721 10.279 9.40625 9.83712 9.84375C9.39519 10.2812 8.86394 10.5 8.24337 10.5ZM14.9934 10.5C14.3728 10.5 13.8438 10.279 13.4062 9.83713C12.9688 9.39519 12.75 8.86394 12.75 8.24338C12.75 7.62279 12.971 7.09375 13.4129 6.65625C13.8548 6.21875 14.3861 6 15.0066 6C15.6272 6 16.1562 6.22096 16.5938 6.66287C17.0312 7.10481 17.25 7.63606 17.25 8.25662C17.25 8.87721 17.029 9.40625 16.5871 9.84375C16.1452 10.2812 15.6139 10.5 14.9934 10.5ZM21.7434 10.5C21.1228 10.5 20.5938 10.279 20.1562 9.83713C19.7188 9.39519 19.5 8.86394 19.5 8.24338C19.5 7.62279 19.721 7.09375 20.1629 6.65625C20.6048 6.21875 21.1361 6 21.7566 6C22.3772 6 22.9062 6.22096 23.3438 6.66287C23.7812 7.10481 24 7.63606 24 8.25662C24 8.87721 23.779 9.40625 23.3371 9.84375C22.8952 10.2812 22.3639 10.5 21.7434 10.5Z" fill="#5DAABF"/>
</svg>
