<svg width="30" height="30" viewBox="0 0 30 30" fill="none" xmlns="http://www.w3.org/2000/svg">
<path d="M15.0122 27C13.3556 27 11.7988 26.6875 10.3418 26.0625C8.88476 25.4375 7.60938 24.5781 6.51562 23.4844C5.42188 22.3906 4.5625 21.115 3.9375 19.6576C3.3125 18.2001 3 16.6428 3 14.9857C3 13.3286 3.3125 11.776 3.9375 10.3281C4.5625 8.88021 5.42188 7.60938 6.51562 6.51562C7.60938 5.42188 8.88498 4.5625 10.3424 3.9375C11.7999 3.3125 13.3572 3 15.0143 3C16.6714 3 18.224 3.3125 19.6719 3.9375C21.1198 4.5625 22.3906 5.42188 23.4844 6.51562C24.5781 7.60938 25.4375 8.88021 26.0625 10.3281C26.6875 11.776 27 13.3333 27 15V16.875C27 18.0176 26.599 18.9908 25.7969 19.7945C24.9948 20.5982 24.0208 21 22.875 21C22.1667 21 21.5156 20.8229 20.9219 20.4688C20.3281 20.1146 19.8213 19.6458 19.4013 19.0625C18.8213 19.6667 18.151 20.1406 17.3906 20.4844C16.6302 20.8281 15.8333 21 15 21C13.34 21 11.925 20.4143 10.755 19.2429C9.585 18.0716 9 16.6549 9 14.9929C9 13.331 9.58569 11.9167 10.7571 10.75C11.9284 9.58333 13.3451 9 15.0071 9C16.669 9 18.0833 9.585 19.25 10.755C20.4167 11.925 21 13.34 21 15V16.875C21 17.3992 21.1823 17.8427 21.5469 18.2057C21.9115 18.5686 22.3542 18.75 22.875 18.75C23.3958 18.75 23.8385 18.5686 24.2031 18.2057C24.5677 17.8427 24.75 17.3992 24.75 16.875V15C24.75 12.2917 23.8021 9.98958 21.9062 8.09375C20.0104 6.19792 17.7083 5.25 15 5.25C12.2917 5.25 9.98958 6.19792 8.09375 8.09375C6.19792 9.98958 5.25 12.2917 5.25 15C5.25 17.7083 6.19792 20.0104 8.09375 21.9062C9.98958 23.8021 12.2917 24.75 15 24.75H21V27H15.0122ZM15 18.75C16.0417 18.75 16.9271 18.3854 17.6562 17.6562C18.3854 16.9271 18.75 16.0417 18.75 15C18.75 13.9583 18.3854 13.0729 17.6562 12.3438C16.9271 11.6146 16.0417 11.25 15 11.25C13.9583 11.25 13.0729 11.6146 12.3438 12.3438C11.6146 13.0729 11.25 13.9583 11.25 15C11.25 16.0417 11.6146 16.9271 12.3438 17.6562C13.0729 18.3854 13.9583 18.75 15 18.75Z" fill="#13425F"/>
</svg>
