<svg width="30" height="30" viewBox="0 0 30 30" fill="none" xmlns="http://www.w3.org/2000/svg">
<path d="M15.0066 15C15.6272 15 16.1562 14.779 16.5938 14.3371C17.0312 13.8952 17.25 13.3639 17.25 12.7434C17.25 12.1228 17.029 11.5938 16.5871 11.1562C16.1452 10.7188 15.6139 10.5 14.9934 10.5C14.3728 10.5 13.8438 10.721 13.4062 11.1629C12.9688 11.6048 12.75 12.1361 12.75 12.7566C12.75 13.3772 12.971 13.9062 13.4129 14.3438C13.8548 14.7812 14.3861 15 15.0066 15ZM15 24.0312C17.4792 21.8021 19.349 19.75 20.6094 17.875C21.8698 16 22.5 14.3229 22.5 12.8438C22.5 10.6562 21.7865 8.84375 20.3594 7.40625C18.9323 5.96875 17.1458 5.25 15 5.25C12.8542 5.25 11.0677 5.96875 9.64062 7.40625C8.21354 8.84375 7.5 10.6562 7.5 12.8438C7.5 14.3229 8.13021 16 9.39062 17.875C10.651 19.75 12.5208 21.8021 15 24.0312ZM15 27C11.7297 24.2686 9.2871 21.7316 7.67225 19.3889C6.05742 17.0463 5.25 14.8646 5.25 12.8438C5.25 10.0521 6.17708 7.71354 8.03125 5.82812C9.88542 3.94271 12.2031 3 14.9844 3C17.7656 3 20.0885 3.94271 21.9531 5.82812C23.8177 7.71354 24.75 10.0521 24.75 12.8438C24.75 14.8646 23.9479 17.0417 22.3438 19.375C20.7396 21.7083 18.2917 24.25 15 27Z" fill="#6C6C6C"/>
</svg>
