<svg width="220" height="59" viewBox="0 0 220 59" fill="none" xmlns="http://www.w3.org/2000/svg">
<g clip-path="url(#clip0_57_3246)">
<path d="M16.9355 59.0001H33.871L25.4033 44.2505L16.9355 59.0001Z" fill="#5DAABF"/>
<path d="M25.4033 44.2505L33.8711 59.0001L42.3388 44.2505H25.4033Z" fill="#4D99B2"/>
<path d="M0 59.0001H16.9355L8.46774 44.2505L0 59.0001Z" fill="#8ACFDB"/>
<path d="M16.9355 29.5007L8.46777 44.2504H25.4032L16.9355 29.5007Z" fill="#5DAABF"/>
<path d="M8.46777 44.2505L16.9355 59.0001L25.4032 44.2505H8.46777Z" fill="#74C0D1"/>
<path d="M25.4033 14.7495L16.9355 29.4991H33.871L25.4033 14.7495Z" fill="#4188A3"/>
<path d="M25.4033 44.2504L16.9355 29.5007H33.871L25.4033 44.2504Z" fill="#4D99B2"/>
<path d="M33.8711 0L25.4033 14.7496H42.3388L33.8711 0Z" fill="#13425F"/>
<path d="M42.3388 14.7495L33.8711 29.4991H50.8066L42.3388 14.7495Z" fill="#13425F"/>
<path d="M33.8711 29.5008L25.4033 14.7512H42.3388L33.8711 29.5008Z" fill="#185D76"/>
<path d="M50.8066 29.5007L42.3389 44.2504H59.2743L50.8066 29.5007Z" fill="#13425F"/>
<path d="M42.3388 44.2504L33.8711 29.5007H50.8066L42.3388 44.2504Z" fill="#185D76"/>
<path d="M50.8076 59.0001H67.7416L59.2739 44.2505L50.8076 59.0001Z" fill="#13425F"/>
<path d="M42.3389 44.2505L50.8081 59.0001L59.2743 44.2505H42.3389Z" fill="#185D76"/>
<path d="M220 38.8938H51.6963V39.5896H220V38.8938Z" fill="#5EAABF"/>
<path d="M74.9723 0H72.6351V10.0739H67.2999V0H64.9715V12.0944H74.5953V15.3726H76.662V10.0724H74.9708V0H74.9723ZM81.0097 6.9682H85.0617V5.02953H81.0097V1.94759H85.3721V0H78.6813V12.0944H85.6427V10.1557H81.0097V6.9682ZM90.0214 7.00091H95.364V12.0959H97.6923V0H95.364V4.97155H90.0214V0H87.6931V12.0944H90.0214V7.00091ZM99.4175 1.94759H102.849V12.0944H105.186V1.94759H108.626V0H99.4175V1.94759ZM112.645 7.8067H114.017C115.357 7.83941 116.47 7.48409 117.355 6.73925C118.241 5.99441 118.683 5.01169 118.683 3.78962C118.681 1.26221 117.216 0 114.286 0H110.316V12.0944H112.644V7.80522L112.645 7.8067ZM112.645 1.86582H113.88C115.454 1.86582 116.241 2.53632 116.241 3.87882C116.241 5.22132 115.436 5.97359 113.831 5.97359H112.647V1.86582H112.645ZM68.1011 19.6335L63.6484 31.7278H66.1896L67.1372 28.8362H71.6549L72.6277 31.7278H75.1689L70.7901 19.6335H68.1026H68.1011ZM67.6768 26.9793L69.1551 22.5831C69.2483 22.2932 69.3163 21.9646 69.3591 21.5974H69.4168C69.4818 22.091 69.5439 22.424 69.6045 22.5994L71.0754 26.9793H67.6768ZM82.522 25.2532V25.2279C83.2138 25.0139 83.7637 24.66 84.1718 24.1635C84.5798 23.6684 84.7853 23.096 84.7853 22.4508C84.7853 21.5632 84.4364 20.8719 83.7401 20.3753C83.0423 19.8803 82.0755 19.632 80.8397 19.632H76.7462V31.7263H81.0363C82.3327 31.7263 83.3676 31.4037 84.1407 30.757C84.9139 30.1103 85.3012 29.245 85.3012 28.1612C85.3012 27.3837 85.0499 26.731 84.5502 26.2062C84.0491 25.6799 83.3735 25.3632 82.5234 25.2532H82.522ZM79.0746 21.4324H80.2675C81.6512 21.4324 82.3431 21.92 82.3431 22.8953C82.3431 23.4379 82.1657 23.8587 81.8124 24.156C81.4576 24.4549 80.9683 24.6035 80.3415 24.6035H79.0746V21.4324ZM82.2766 29.4517C81.8952 29.7698 81.3615 29.9289 80.6756 29.9289H79.0746V26.4129H80.5943C82.0977 26.4129 82.8487 26.9852 82.8487 28.13C82.8487 28.6949 82.658 29.135 82.2766 29.4532V29.4517ZM86.2562 21.5796H89.6873V31.7263H92.0245V21.5796H95.4645V19.632H86.2562V21.5796ZM102.359 19.4357C100.556 19.4357 99.1115 20.0274 98.025 21.2109C96.9384 22.3943 96.3944 23.936 96.3944 25.8375C96.3944 27.6171 96.9266 29.08 97.991 30.2248C99.0553 31.3695 100.449 31.9419 102.17 31.9419C103.891 31.9419 105.363 31.3547 106.439 30.1802C107.516 29.0057 108.054 27.4699 108.054 25.5743C108.054 23.7784 107.532 22.3051 106.49 21.1573C105.446 20.0096 104.07 19.4357 102.359 19.4357ZM104.708 28.7827C104.113 29.5305 103.277 29.9036 102.204 29.9036C101.131 29.9036 100.35 29.5112 99.7487 28.7247C99.147 27.9382 98.8454 26.9317 98.8454 25.7052C98.8454 24.4786 99.1514 23.4662 99.7649 22.6693C100.378 21.8724 101.218 21.474 102.285 21.474C103.353 21.474 104.158 21.8546 104.736 22.6158C105.314 23.377 105.603 24.4177 105.603 25.7379C105.603 27.0581 105.304 28.0348 104.708 28.7827ZM117.336 27.1517C117.119 27.7925 116.949 28.3515 116.829 28.8273H116.771C116.694 28.3456 116.539 27.7925 116.306 27.1681L113.495 19.6335H110.146V31.7278H112.261V24.6288C112.261 23.5822 112.231 22.6128 112.171 21.7208H112.229C112.397 22.537 112.523 23.0544 112.604 23.2744L115.831 31.7293H117.604L120.789 23.2001C120.903 22.9042 121.029 22.4106 121.165 21.7208H121.214C121.149 22.8492 121.116 23.6877 121.116 24.2348V31.7278H123.421V19.6335H120.169L117.333 27.1517H117.336ZM129.411 19.6335L124.958 31.7278H127.499L128.447 28.8362H132.965L133.937 31.7278H136.479L132.1 19.6335H129.412H129.411ZM128.987 26.9793L130.465 22.5831C130.558 22.2932 130.626 21.9646 130.669 21.5974H130.727C130.792 22.091 130.855 22.424 130.914 22.5994L132.385 26.9793H128.987ZM136.903 21.5811H140.334V31.7278H142.671V21.5811H146.111V19.6335H136.903V21.5811ZM150.564 27.6126C150.199 28.188 150.008 28.5002 149.992 28.5492H149.959C150.002 28.2638 150.024 27.7003 150.024 26.8559V19.6335H147.802V31.7278H150.237L155.556 23.5361C155.802 23.1584 155.98 22.8462 156.096 22.5994H156.153C156.099 23.0811 156.072 23.7056 156.072 24.4727V31.7278H158.287V19.6335H155.706L150.567 27.6111L150.564 27.6126ZM165.768 25.4346V25.4019C167.337 24.996 168.122 24.0163 168.122 22.4597C168.122 21.5127 167.748 20.7708 166.998 20.2371C166.249 19.7033 165.286 19.4357 164.11 19.4357C162.933 19.4357 161.792 19.6736 160.801 20.1508V22.1475C161.809 21.5558 162.776 21.2599 163.702 21.2599C165.037 21.2599 165.703 21.7936 165.703 22.8626C165.703 24.0356 164.908 24.6214 163.317 24.6214H161.937V26.4129H163.391C165.177 26.4129 166.071 27.0313 166.071 28.2697C166.071 29.5082 165.263 30.1103 163.645 30.1103C162.442 30.1103 161.363 29.7847 160.409 29.132V31.2684C161.194 31.7174 162.311 31.9419 163.759 31.9419C165.208 31.9419 166.394 31.6252 167.236 30.9934C168.077 30.3601 168.499 29.4561 168.499 28.2772C168.499 27.5264 168.253 26.896 167.764 26.3831C167.273 25.8717 166.609 25.555 165.771 25.4346H165.768ZM173.8 19.6335L169.347 31.7278H171.889L172.836 28.8362H177.354L178.327 31.7278H180.868L176.489 19.6335H173.801H173.8ZM173.376 26.9793L174.854 22.5831C174.947 22.2932 175.015 21.9646 175.058 21.5974H175.116C175.181 22.091 175.244 22.424 175.303 22.5994L176.774 26.9793H173.376ZM192.444 19.6335H190.107V29.7074H184.772V19.6335H182.444V31.7278H192.067V35.006H194.134V29.7059H192.443V19.632L192.444 19.6335ZM198.915 27.6111C198.55 28.1865 198.359 28.4987 198.343 28.5478H198.31C198.353 28.2623 198.375 27.6989 198.375 26.8544V19.632H196.153V31.7263H198.588L203.907 23.5346C204.153 23.157 204.331 22.8448 204.447 22.598H204.504C204.45 23.0797 204.423 23.7041 204.423 24.4712V31.7263H206.638V19.632H204.056L198.918 27.6097L198.915 27.6111ZM217.42 19.6335L212.282 27.6111C211.917 28.1865 211.726 28.4987 211.71 28.5478H211.677C211.72 28.2623 211.742 27.6989 211.742 26.8544V19.632H209.52V31.7263H211.955L217.274 23.5346C217.519 23.157 217.698 22.8448 217.814 22.598H217.871C217.817 23.0797 217.79 23.7041 217.79 24.4712V31.7263H220.004V19.632H217.423L217.42 19.6335Z" fill="#13425F"/>
</g>
<defs>
<clipPath id="clip0_57_3246">
<rect width="220" height="59" fill="white"/>
</clipPath>
</defs>
</svg>
