<svg width="580" height="503" viewBox="0 0 580 503" fill="none" xmlns="http://www.w3.org/2000/svg">
<g clip-path="url(#clip0_57_3986)">
<path d="M217.494 376.721L144.996 502.295H290.009L217.494 376.721Z" fill="#5DAABF"/>
<path d="M290.008 502.295L217.493 376.721H362.506L290.008 502.295Z" fill="#4D99B2"/>
<path d="M72.4978 376.721L0 502.295H144.996L72.4978 376.721Z" fill="#8ACFDB"/>
<path d="M144.996 251.147L72.498 376.721H217.494L144.996 251.147Z" fill="#5DAABF"/>
<path d="M144.996 502.295L72.498 376.721H217.494L144.996 502.295Z" fill="#74C0D1"/>
<path d="M217.494 125.574L144.996 251.147H290.009L217.494 125.574Z" fill="#4188A3"/>
<path d="M217.494 376.721L144.996 251.147H290.009L217.494 376.721Z" fill="#4D99B2"/>
<path d="M290.008 0L217.493 125.574H362.506L290.008 0Z" fill="#13425F"/>
<path d="M362.506 125.574L290.008 251.147H435.003L362.506 125.574Z" fill="#13425F"/>
<path d="M290.008 251.147L217.493 125.574H362.506L290.008 251.147Z" fill="#185D76"/>
<path d="M435.004 251.147L362.506 376.721H507.502L435.004 251.147Z" fill="#13425F"/>
<path d="M362.506 376.721L290.008 251.147H435.003L362.506 376.721Z" fill="#185D76"/>
<path d="M507.502 376.721L435.004 502.295H580L507.502 376.721Z" fill="#13425F"/>
<path d="M435.004 502.295L362.506 376.721H507.502L435.004 502.295Z" fill="#185D76"/>
</g>
<defs>
<clipPath id="clip0_57_3986">
<rect width="580" height="502.295" fill="white"/>
</clipPath>
</defs>
</svg>
