<svg width="20" height="20" viewBox="0 0 20 20" fill="none" xmlns="http://www.w3.org/2000/svg">
<path d="M3.5 17C3.0875 17 2.73438 16.8531 2.44063 16.5594C2.14688 16.2656 2 15.9125 2 15.5V3L3.34 4.33333L4.66 3L6 4.33333L7.34 3L8.66 4.33333L10 3L11.34 4.33333L12.66 3L14 4.33333L15.34 3L16.66 4.33333L18 3V15.5C18 15.9125 17.8531 16.2656 17.5594 16.5594C17.2656 16.8531 16.9125 17 16.5 17H3.5ZM3.5 15.5H9.25V11H3.5V15.5ZM10.75 15.5H16.5V14H10.75V15.5ZM10.75 12.5H16.5V11H10.75V12.5ZM3.5 9.5H16.5V6.5H3.5V9.5Z" fill="#4D99B2"/>
</svg>
