<svg width="30" height="30" viewBox="0 0 30 30" fill="none" xmlns="http://www.w3.org/2000/svg">
<path d="M23.2499 14.9688C23.2499 12.6979 22.4426 10.7552 20.828 9.14062C19.2134 7.52604 17.2707 6.71875 14.9999 6.71875V4.46875C16.4582 4.46875 17.8242 4.74583 19.0978 5.3C20.3714 5.85417 21.4797 6.60278 22.4228 7.54584C23.3658 8.48888 24.1144 9.59722 24.6686 10.8708C25.2228 12.1444 25.4999 13.5104 25.4999 14.9688H23.2499ZM18.7499 14.9688C18.7499 13.9271 18.3853 13.0417 17.6561 12.3125C16.9269 11.5833 16.0415 11.2188 14.9999 11.2188V8.96875C16.6665 8.96875 18.0832 9.55375 19.2499 10.7237C20.4165 11.8937 20.9999 13.3088 20.9999 14.9688H18.7499ZM23.8436 25.4688C21.3228 25.2812 18.9322 24.6615 16.6717 23.6094C14.4113 22.5573 12.3853 21.1354 10.5936 19.3438C8.80195 17.5521 7.38528 15.526 6.34361 13.2656C5.30195 11.0052 4.68736 8.61458 4.49986 6.09375C4.4582 5.65625 4.58618 5.27604 4.8838 4.95312C5.1814 4.63021 5.55343 4.46875 5.99986 4.46875H10.2499C10.604 4.46875 10.9113 4.57812 11.1717 4.79688C11.4322 5.01562 11.604 5.29167 11.6874 5.625L12.4374 8.96875C12.479 9.23958 12.4634 9.5 12.3905 9.75C12.3176 10 12.1978 10.2083 12.0311 10.375L8.99986 13.4375C9.41653 14.2292 9.8957 14.9896 10.4374 15.7188C10.979 16.4479 11.5829 17.1353 12.2489 17.7808C12.8745 18.4061 13.5415 18.9844 14.2499 19.5156C14.9582 20.0469 15.7082 20.5208 16.4999 20.9375L19.5936 17.9375C19.7603 17.7708 19.9686 17.651 20.2186 17.5781C20.4686 17.5052 20.729 17.4896 20.9999 17.5312L24.3436 18.25C24.6978 18.3542 24.979 18.5365 25.1874 18.7969C25.3957 19.0573 25.4999 19.3646 25.4999 19.7188V23.9688C25.4999 24.4152 25.3332 24.7872 24.9999 25.0848C24.6665 25.3824 24.2811 25.5104 23.8436 25.4688ZM7.96861 11.25L10.1561 9.0625L9.61986 6.71875H6.81236C6.91653 7.51042 7.06236 8.28125 7.24986 9.03125C7.43736 9.78125 7.67695 10.5208 7.96861 11.25ZM18.7186 22C19.4499 22.2967 20.1952 22.5324 20.9545 22.7069C21.7139 22.8815 22.479 23.0208 23.2499 23.125V20.3125L20.9061 19.8125L18.7186 22Z" fill="#13425F"/>
</svg>
