<svg width="20" height="20" viewBox="0 0 20 20" fill="none" xmlns="http://www.w3.org/2000/svg">
<path d="M15.5 9.97913C15.5 8.46524 14.9618 7.1701 13.8854 6.09371C12.809 5.01732 11.5139 4.47913 10 4.47913V2.97913C10.9722 2.97913 11.8829 3.16385 12.7319 3.53329C13.581 3.90274 14.3199 4.40181 14.9486 5.03052C15.5773 5.65922 16.0764 6.3981 16.4458 7.24719C16.8153 8.09626 17 9.0069 17 9.97913H15.5ZM12.5 9.97913C12.5 9.28468 12.2569 8.6944 11.7708 8.20829C11.2847 7.72218 10.6944 7.47913 10 7.47913V5.97913C11.1111 5.97913 12.0556 6.36913 12.8333 7.14913C13.6111 7.92913 14 8.87246 14 9.97913H12.5ZM15.8958 16.9791C14.2153 16.8541 12.6215 16.4409 11.1146 15.7395C9.60764 15.0382 8.25694 14.0902 7.0625 12.8958C5.86805 11.7013 4.92361 10.3507 4.22916 8.84371C3.53472 7.33676 3.125 5.74301 3 4.06246C2.97222 3.77079 3.05754 3.51732 3.25596 3.30204C3.45436 3.08676 3.70237 2.97913 4 2.97913H6.83333C7.06944 2.97913 7.2743 3.05204 7.44791 3.19788C7.62152 3.34371 7.73611 3.52774 7.79166 3.74996L8.29166 5.97913C8.31944 6.15968 8.30902 6.33329 8.26041 6.49996C8.2118 6.66663 8.13194 6.80551 8.02083 6.91663L6 8.95829C6.27778 9.48607 6.59722 9.99301 6.95833 10.4791C7.31944 10.9652 7.722 11.4235 8.16602 11.8538C8.58312 12.2707 9.02777 12.6562 9.5 13.0104C9.97222 13.3645 10.4722 13.6805 11 13.9583L13.0625 11.9583C13.1736 11.8472 13.3125 11.7673 13.4792 11.7187C13.6458 11.6701 13.8194 11.6597 14 11.6875L16.2292 12.1666C16.4653 12.2361 16.6528 12.3576 16.7917 12.5312C16.9306 12.7048 17 12.9097 17 13.1458V15.9791C17 16.2768 16.8889 16.5248 16.6667 16.7232C16.4444 16.9216 16.1875 17.0069 15.8958 16.9791ZM5.3125 7.49996L6.77083 6.04163L6.41333 4.47913H4.54166C4.61111 5.0069 4.70833 5.52079 4.83333 6.02079C4.95833 6.52079 5.11805 7.01385 5.3125 7.49996ZM12.4792 14.6666C12.9667 14.8644 13.4635 15.0215 13.9698 15.1379C14.476 15.2543 14.9861 15.3472 15.5 15.4166V13.5416L13.9375 13.2083L12.4792 14.6666Z" fill="white"/>
</svg>
