<svg width="40" height="40" viewBox="0 0 40 40" fill="none" xmlns="http://www.w3.org/2000/svg">
<path d="M31.0005 19.9583C31.0005 16.9306 29.9241 14.3403 27.7713 12.1875C25.6185 10.0347 23.0282 8.95834 20.0005 8.95834V5.95834C21.9449 5.95834 23.7662 6.32779 25.4643 7.06668C27.1625 7.80556 28.6403 8.80372 29.8977 10.0611C31.1551 11.3185 32.1532 12.7963 32.8921 14.4945C33.631 16.1926 34.0005 18.0139 34.0005 19.9583H31.0005ZM25.0005 19.9583C25.0005 18.5695 24.5144 17.3889 23.5421 16.4167C22.5699 15.4445 21.3894 14.9583 20.0005 14.9583V11.9583C22.2227 11.9583 24.1116 12.7383 25.6671 14.2983C27.2227 15.8583 28.0005 17.745 28.0005 19.9583H25.0005ZM31.7921 33.9583C28.431 33.7083 25.2435 32.882 22.2296 31.4792C19.2157 30.0764 16.5144 28.1806 14.1255 25.7917C11.7366 23.4028 9.84769 20.7014 8.4588 17.6875C7.06991 14.6736 6.25047 11.4861 6.00047 8.12501C5.94491 7.54168 6.11555 7.03473 6.51238 6.60418C6.90919 6.17362 7.40522 5.95834 8.00047 5.95834H13.6671C14.1394 5.95834 14.5491 6.10418 14.8963 6.39584C15.2435 6.68751 15.4727 7.05557 15.5838 7.50001L16.5838 11.9583C16.6394 12.3195 16.6185 12.6667 16.5213 13C16.4241 13.3333 16.2644 13.6111 16.0421 13.8333L12.0005 17.9167C12.556 18.9722 13.1949 19.9861 13.9171 20.9583C14.6394 21.9306 15.4445 22.847 16.3325 23.7077C17.1667 24.5415 18.056 25.3125 19.0005 26.0208C19.9449 26.7292 20.9449 27.3611 22.0005 27.9167L26.1255 23.9167C26.3477 23.6945 26.6255 23.5347 26.9588 23.4375C27.2921 23.3403 27.6394 23.3195 28.0005 23.375L32.4588 24.3333C32.931 24.4722 33.306 24.7153 33.5838 25.0625C33.8616 25.4097 34.0005 25.8195 34.0005 26.2917V31.9583C34.0005 32.5536 33.7782 33.0496 33.3338 33.4464C32.8894 33.8433 32.3755 34.0139 31.7921 33.9583ZM10.6255 15L13.5421 12.0833L12.8271 8.95834H9.0838C9.22269 10.0139 9.41713 11.0417 9.66713 12.0417C9.91713 13.0417 10.2366 14.0278 10.6255 15ZM24.9588 29.3333C25.9338 29.729 26.9275 30.0432 27.9401 30.2759C28.9525 30.5086 29.9727 30.6945 31.0005 30.8333V27.0833L27.8755 26.4167L24.9588 29.3333Z" fill="#5DAABF"/>
</svg>
