<svg width="92" height="80" viewBox="0 0 92 80" fill="none" xmlns="http://www.w3.org/2000/svg">
<g clip-path="url(#clip0_57_4769)">
<path d="M34.4987 60L22.999 80H46.001L34.4987 60Z" fill="#13425F"/>
<path d="M46.0014 80L34.499 60H57.501L46.0014 80Z" fill="#13425F"/>
<path d="M11.4997 60L0 80H22.9993L11.4997 60Z" fill="#13425F"/>
<path d="M22.9997 40L11.5 60H34.4993L22.9997 40Z" fill="#13425F"/>
<path d="M22.9997 80L11.5 60H34.4993L22.9997 80Z" fill="#13425F"/>
<path d="M34.4987 20L22.999 40H46.001L34.4987 20Z" fill="#13425F"/>
<path d="M34.4987 60L22.999 40H46.001L34.4987 60Z" fill="#13425F"/>
<path d="M46.0014 0L34.499 20H57.501L46.0014 0Z" fill="#13425F"/>
<path d="M57.5006 20L46.001 40H69.0003L57.5006 20Z" fill="#13425F"/>
<path d="M46.0014 40L34.499 20H57.501L46.0014 40Z" fill="#13425F"/>
<path d="M69.0006 40L57.501 60H80.5003L69.0006 40Z" fill="#13425F"/>
<path d="M57.5006 60L46.001 40H69.0003L57.5006 60Z" fill="#13425F"/>
<path d="M80.5006 60L69.001 80H92.0003L80.5006 60Z" fill="#13425F"/>
<path d="M69.0006 80L57.501 60H80.5003L69.0006 80Z" fill="#13425F"/>
</g>
<defs>
<clipPath id="clip0_57_4769">
<rect width="92" height="80" fill="white"/>
</clipPath>
</defs>
</svg>
