<svg width="20" height="18" viewBox="0 0 20 18" fill="none" xmlns="http://www.w3.org/2000/svg">
<path d="M10.6535 14.9358C10.0009 15.5338 9.37115 16.1161 8.73662 16.6936C7.78182 17.5605 6.8535 17.3483 6.43691 16.1222C5.989 14.8032 5.56879 13.4722 5.2136 12.1267C5.05587 11.5275 4.75486 11.2345 4.18054 11.0693C3.245 10.7993 2.32993 10.4605 1.40763 10.147C1.2198 10.0831 1.03077 10.0156 0.858591 9.91915C0.340854 9.62738 -0.00711384 9.21505 0.000110396 8.5833C0.00733463 7.9419 0.382995 7.54162 0.919997 7.29688C1.75199 6.9171 2.60204 6.5747 3.44487 6.21904C8.19601 4.21888 12.9471 2.21872 17.6983 0.217354C18.3184 -0.0442705 18.9336 -0.137105 19.4995 0.327067C20.0546 0.781594 20.057 1.40491 19.9354 2.03064C19.0877 6.41194 18.2305 10.7908 17.3756 15.1697C17.2877 15.6194 17.1625 16.0643 17.1059 16.5164C16.9361 17.8547 15.2372 18.4696 14.1295 17.5882C13.1302 16.7937 12.1079 16.0281 11.0941 15.2505C10.9533 15.1432 10.8076 15.0431 10.6547 14.9346L10.6535 14.9358ZM10.5836 12.9345C11.9671 13.993 13.312 15.0214 14.6569 16.051C15.4732 16.6756 15.531 16.6502 15.7273 15.6423C16.4389 11.9868 17.1565 8.33132 17.8681 4.67581C18.0643 3.6691 18.2461 2.65998 18.4544 1.5532C12.8255 3.92591 7.30983 6.25159 1.68938 8.62188C3.05235 9.08726 4.3178 9.50079 5.56759 9.95652C6.02031 10.1217 6.37309 10.0807 6.78728 9.82029C9.58788 8.05764 12.4053 6.32031 15.2192 4.58057C15.4431 4.44192 15.6912 4.34306 15.9283 4.22611C15.9837 4.28157 16.0403 4.33703 16.0957 4.39128C15.9476 4.58419 15.8236 4.80241 15.649 4.96758C13.3625 7.11362 11.0664 9.24881 8.77997 11.3949C8.61261 11.5516 8.41635 11.7529 8.37902 11.9603C8.17554 13.0683 8.01901 14.1835 7.82637 15.4265C8.7908 14.5548 9.66132 13.7688 10.5848 12.9345H10.5836Z" fill="white"/>
</svg>
