<svg width="30" height="30" viewBox="0 0 30 30" fill="none" xmlns="http://www.w3.org/2000/svg">
<path d="M15.0086 27C13.357 27 11.8021 26.6875 10.3438 26.0625C8.88542 25.4375 7.60938 24.5781 6.51562 23.4844C5.42188 22.3906 4.5625 21.115 3.9375 19.6576C3.3125 18.2001 3 16.6428 3 14.9857C3 13.3286 3.3125 11.776 3.9375 10.3281C4.5625 8.88021 5.42188 7.60938 6.51562 6.51562C7.60938 5.42188 8.88498 4.5625 10.3424 3.9375C11.7999 3.3125 13.3572 3 15.0143 3C16.6714 3 18.224 3.3125 19.6719 3.9375C21.1198 4.5625 22.3906 5.42188 23.4844 6.51562C24.5781 7.60938 25.4375 8.88254 26.0625 10.3351C26.6875 11.7877 27 13.3398 27 14.9914C27 16.643 26.6875 18.1979 26.0625 19.6562C25.4375 21.1146 24.5781 22.3906 23.4844 23.4844C22.3906 24.5781 21.1175 25.4375 19.6649 26.0625C18.2123 26.6875 16.6602 27 15.0086 27ZM13.5 24.625V22.5C13.0833 22.5 12.7292 22.3531 12.4375 22.0594C12.1458 21.7656 12 21.4125 12 21V19.5L5.46875 12.9688C5.38542 13.3646 5.32812 13.7292 5.29688 14.0625C5.26562 14.3958 5.25 14.7083 5.25 15C5.25 17.3958 6.02604 19.5104 7.57812 21.3438C9.13021 23.1771 11.1042 24.2708 13.5 24.625ZM22.5 21.2188C22.875 20.7812 23.2031 20.3229 23.4844 19.8438C23.7656 19.3646 23.9985 18.8588 24.1831 18.3265C24.3677 17.7941 24.5083 17.2472 24.605 16.6858C24.7017 16.1244 24.75 15.5625 24.75 15C24.75 13.029 24.2083 11.229 23.125 9.59987C22.0417 7.97079 20.5833 6.77083 18.75 6V6.75C18.75 7.36875 18.5297 7.89844 18.0891 8.33906C17.6484 8.77969 17.1187 9 16.5 9H13.5V10.5C13.5 10.925 13.3563 11.2812 13.0688 11.5688C12.7812 11.8563 12.425 12 12 12H10.5V15H18C18.425 15 18.7812 15.1437 19.0688 15.4312C19.3563 15.7188 19.5 16.075 19.5 16.5V19.5H20.7812C21.2604 19.5 21.6667 19.6667 22 20C22.3333 20.3333 22.5 20.7396 22.5 21.2188Z" fill="#13425F"/>
</svg>
