<?xml version="1.0" encoding="UTF-8"?>
<!DOCTYPE svg PUBLIC "-//W3C//DTD SVG 1.1//EN" "http://www.w3.org/Graphics/SVG/1.1/DTD/svg11.dtd">
<svg xmlns="http://www.w3.org/2000/svg" xml:space="preserve" width="93.13mm" height="93.13mm" version="1.1" style="shape-rendering:geometricPrecision; text-rendering:geometricPrecision; image-rendering:optimizeQuality; fill-rule:evenodd; clip-rule:evenodd"
viewBox="0 0 9313 9313"
 xmlns:xlink="http://www.w3.org/1999/xlink">
 <defs>
  <style type="text/css">
   <![CDATA[
    .fil0 {fill:white}
   ]]>
  </style>
 </defs>
 <g id="x0020_1">
  <metadata id="Layer"/>
  <g id="_1950333125392">
   <path class="fil0" d="M317.89 423.71c0,149.45 211.64,149.45 211.64,0 0,-149.45 -211.64,-149.45 -211.64,0z"/>
   <path class="fil0" d="M1164.45 423.71c0,149.45 211.64,149.45 211.64,0 0,-149.45 -211.64,-149.45 -211.64,0z"/>
   <path class="fil0" d="M2011.01 423.71c0,149.45 211.64,149.45 211.64,0 0,-149.45 -211.64,-149.45 -211.64,0z"/>
   <path class="fil0" d="M2857.57 423.71c0,149.45 211.64,149.45 211.64,0 0,-149.45 -211.64,-149.45 -211.64,0z"/>
   <path class="fil0" d="M3704.12 423.71c0,149.45 211.64,149.45 211.64,0 0,-149.45 -211.64,-149.45 -211.64,0z"/>
   <path class="fil0" d="M4550.68 423.71c0,149.45 211.64,149.45 211.64,0 0,-149.45 -211.64,-149.45 -211.64,0z"/>
   <path class="fil0" d="M5397.24 423.71c0,149.45 211.64,149.45 211.64,0 0,-149.45 -211.64,-149.45 -211.64,0z"/>
   <path class="fil0" d="M6243.8 423.71c0,149.45 211.64,149.45 211.64,0 0,-149.45 -211.64,-149.45 -211.64,0z"/>
   <path class="fil0" d="M7090.35 423.71c0,149.45 211.64,149.45 211.64,0 0,-149.45 -211.64,-149.45 -211.64,0z"/>
   <path class="fil0" d="M7936.91 423.71c0,149.45 211.64,149.45 211.64,0 0,-149.45 -211.64,-149.45 -211.64,0z"/>
   <path class="fil0" d="M8783.47 423.71c0,149.45 211.64,149.45 211.64,0 0,-149.45 -211.64,-149.45 -211.64,0z"/>
   <path class="fil0" d="M317.89 1270.27c0,149.45 211.64,149.45 211.64,0 0,-149.44 -211.64,-149.44 -211.64,0z"/>
   <path class="fil0" d="M1164.45 1270.27c0,149.45 211.64,149.45 211.64,0 0,-149.44 -211.64,-149.44 -211.64,0z"/>
   <path class="fil0" d="M2011.01 1270.27c0,149.45 211.64,149.45 211.64,0 0,-149.44 -211.64,-149.44 -211.64,0z"/>
   <path class="fil0" d="M2857.57 1270.27c0,149.45 211.64,149.45 211.64,0 0,-149.44 -211.64,-149.44 -211.64,0z"/>
   <path class="fil0" d="M3704.12 1270.27c0,149.45 211.64,149.45 211.64,0 0,-149.44 -211.64,-149.44 -211.64,0z"/>
   <path class="fil0" d="M4550.68 1270.27c0,149.45 211.64,149.45 211.64,0 0,-149.44 -211.64,-149.44 -211.64,0z"/>
   <path class="fil0" d="M5397.24 1270.27c0,149.45 211.64,149.45 211.64,0 0,-149.44 -211.64,-149.44 -211.64,0z"/>
   <path class="fil0" d="M6243.8 1270.27c0,149.45 211.64,149.45 211.64,0 0,-149.44 -211.64,-149.44 -211.64,0z"/>
   <path class="fil0" d="M7090.35 1270.27c0,149.45 211.64,149.45 211.64,0 0,-149.44 -211.64,-149.44 -211.64,0z"/>
   <path class="fil0" d="M7936.91 1270.27c0,149.45 211.64,149.45 211.64,0 0,-149.44 -211.64,-149.44 -211.64,0z"/>
   <path class="fil0" d="M8783.47 1270.27c0,149.45 211.64,149.45 211.64,0 0,-149.44 -211.64,-149.44 -211.64,0z"/>
   <path class="fil0" d="M317.89 2116.83c0,149.45 211.64,149.45 211.64,0 0,-149.44 -211.64,-149.44 -211.64,0z"/>
   <path class="fil0" d="M1164.45 2116.83c0,149.45 211.64,149.45 211.64,0 0,-149.44 -211.64,-149.44 -211.64,0z"/>
   <path class="fil0" d="M2011.01 2116.83c0,149.45 211.64,149.45 211.64,0 0,-149.44 -211.64,-149.44 -211.64,0z"/>
   <path class="fil0" d="M2857.57 2116.83c0,149.45 211.64,149.45 211.64,0 0,-149.44 -211.64,-149.44 -211.64,0z"/>
   <path class="fil0" d="M3704.12 2116.83c0,149.45 211.64,149.45 211.64,0 0,-149.44 -211.64,-149.44 -211.64,0z"/>
   <path class="fil0" d="M4550.68 2116.83c0,149.45 211.64,149.45 211.64,0 0,-149.44 -211.64,-149.44 -211.64,0z"/>
   <path class="fil0" d="M5397.24 2116.83c0,149.45 211.64,149.45 211.64,0 0,-149.44 -211.64,-149.44 -211.64,0z"/>
   <path class="fil0" d="M6243.8 2116.83c0,149.45 211.64,149.45 211.64,0 0,-149.44 -211.64,-149.44 -211.64,0z"/>
   <path class="fil0" d="M7090.35 2116.83c0,149.45 211.64,149.45 211.64,0 0,-149.44 -211.64,-149.44 -211.64,0z"/>
   <path class="fil0" d="M7936.91 2116.83c0,149.45 211.64,149.45 211.64,0 0,-149.44 -211.64,-149.44 -211.64,0z"/>
   <path class="fil0" d="M8783.47 2116.83c0,149.45 211.64,149.45 211.64,0 0,-149.44 -211.64,-149.44 -211.64,0z"/>
   <path class="fil0" d="M2857.57 2963.39c0,149.45 211.64,149.45 211.64,0 0,-149.44 -211.64,-149.44 -211.64,0z"/>
   <path class="fil0" d="M1164.45 2963.39c0,149.45 211.64,149.45 211.64,0 0,-149.44 -211.64,-149.44 -211.64,0z"/>
   <path class="fil0" d="M3704.12 2963.39c0,149.45 211.64,149.45 211.64,0 0,-149.44 -211.64,-149.44 -211.64,0z"/>
   <path class="fil0" d="M317.89 2963.39c0,149.45 211.64,149.45 211.64,0 0,-149.44 -211.64,-149.44 -211.64,0z"/>
   <path class="fil0" d="M2011.01 2963.39c0,149.45 211.64,149.45 211.64,0 0,-149.44 -211.64,-149.44 -211.64,0z"/>
   <path class="fil0" d="M4550.68 2963.39c0,149.45 211.64,149.45 211.64,0 0,-149.44 -211.64,-149.44 -211.64,0z"/>
   <path class="fil0" d="M5397.24 2963.39c0,149.45 211.64,149.45 211.64,0 0,-149.44 -211.64,-149.44 -211.64,0z"/>
   <path class="fil0" d="M6243.8 2963.39c0,149.45 211.64,149.45 211.64,0 0,-149.44 -211.64,-149.44 -211.64,0z"/>
   <path class="fil0" d="M7090.35 2963.39c0,149.45 211.64,149.45 211.64,0 0,-149.44 -211.64,-149.44 -211.64,0z"/>
   <path class="fil0" d="M7936.91 2963.39c0,149.45 211.64,149.45 211.64,0 0,-149.44 -211.64,-149.44 -211.64,0z"/>
   <path class="fil0" d="M8783.47 2963.39c0,149.45 211.64,149.45 211.64,0 0,-149.44 -211.64,-149.44 -211.64,0z"/>
   <path class="fil0" d="M317.89 3809.94c0,149.45 211.64,149.45 211.64,0 0,-149.44 -211.64,-149.44 -211.64,0z"/>
   <path class="fil0" d="M1164.45 3809.94c0,149.45 211.64,149.45 211.64,0 0,-149.44 -211.64,-149.44 -211.64,0z"/>
   <path class="fil0" d="M2011.01 3809.94c0,149.45 211.64,149.45 211.64,0 0,-149.44 -211.64,-149.44 -211.64,0z"/>
   <path class="fil0" d="M2857.57 3809.94c0,149.45 211.64,149.45 211.64,0 0,-149.44 -211.64,-149.44 -211.64,0z"/>
   <path class="fil0" d="M3704.12 3809.94c0,149.45 211.64,149.45 211.64,0 0,-149.44 -211.64,-149.44 -211.64,0z"/>
   <path class="fil0" d="M4550.68 3809.94c0,149.45 211.64,149.45 211.64,0 0,-149.44 -211.64,-149.44 -211.64,0z"/>
   <path class="fil0" d="M5397.24 3809.94c0,149.45 211.64,149.45 211.64,0 0,-149.44 -211.64,-149.44 -211.64,0z"/>
   <path class="fil0" d="M6243.8 3809.94c0,149.45 211.64,149.45 211.64,0 0,-149.44 -211.64,-149.44 -211.64,0z"/>
   <path class="fil0" d="M7090.35 3809.94c0,149.45 211.64,149.45 211.64,0 0,-149.44 -211.64,-149.44 -211.64,0z"/>
   <path class="fil0" d="M7936.91 3809.94c0,149.45 211.64,149.45 211.64,0 0,-149.44 -211.64,-149.44 -211.64,0z"/>
   <path class="fil0" d="M8783.47 3809.94c0,149.45 211.64,149.45 211.64,0 0,-149.44 -211.64,-149.44 -211.64,0z"/>
   <path class="fil0" d="M2857.57 4656.5c0,149.45 211.64,149.45 211.64,0 0,-149.44 -211.64,-149.44 -211.64,0z"/>
   <path class="fil0" d="M3704.12 4656.5c0,149.45 211.64,149.45 211.64,0 0,-149.44 -211.64,-149.44 -211.64,0z"/>
   <path class="fil0" d="M317.89 4656.5c0,149.45 211.64,149.45 211.64,0 0,-149.44 -211.64,-149.44 -211.64,0z"/>
   <path class="fil0" d="M1164.45 4656.5c0,149.45 211.64,149.45 211.64,0 0,-149.44 -211.64,-149.44 -211.64,0z"/>
   <path class="fil0" d="M2011.01 4656.5c0,149.45 211.64,149.45 211.64,0 0,-149.44 -211.64,-149.44 -211.64,0z"/>
   <path class="fil0" d="M4550.68 4656.5c0,149.45 211.64,149.45 211.64,0 0,-149.44 -211.64,-149.44 -211.64,0z"/>
   <path class="fil0" d="M5397.24 4656.5c0,149.45 211.64,149.45 211.64,0 0,-149.44 -211.64,-149.44 -211.64,0z"/>
   <path class="fil0" d="M6243.8 4656.5c0,149.45 211.64,149.45 211.64,0 0,-149.44 -211.64,-149.44 -211.64,0z"/>
   <path class="fil0" d="M7090.35 4656.5c0,149.45 211.64,149.45 211.64,0 0,-149.44 -211.64,-149.44 -211.64,0z"/>
   <path class="fil0" d="M7936.91 4656.5c0,149.45 211.64,149.45 211.64,0 0,-149.44 -211.64,-149.44 -211.64,0z"/>
   <path class="fil0" d="M8783.47 4656.5c0,149.45 211.64,149.45 211.64,0 0,-149.44 -211.64,-149.44 -211.64,0z"/>
   <path class="fil0" d="M317.89 5503.06c0,149.45 211.64,149.45 211.64,0 0,-149.44 -211.64,-149.44 -211.64,0z"/>
   <path class="fil0" d="M1164.45 5503.06c0,149.45 211.64,149.45 211.64,0 0,-149.44 -211.64,-149.44 -211.64,0z"/>
   <path class="fil0" d="M2011.01 5503.06c0,149.45 211.64,149.45 211.64,0 0,-149.44 -211.64,-149.44 -211.64,0z"/>
   <path class="fil0" d="M2857.57 5503.06c0,149.45 211.64,149.45 211.64,0 0,-149.44 -211.64,-149.44 -211.64,0z"/>
   <path class="fil0" d="M3704.12 5503.06c0,149.45 211.64,149.45 211.64,0 0,-149.44 -211.64,-149.44 -211.64,0z"/>
   <path class="fil0" d="M4550.68 5503.06c0,149.45 211.64,149.45 211.64,0 0,-149.44 -211.64,-149.44 -211.64,0z"/>
   <path class="fil0" d="M5397.24 5503.06c0,149.45 211.64,149.45 211.64,0 0,-149.44 -211.64,-149.44 -211.64,0z"/>
   <path class="fil0" d="M6243.8 5503.06c0,149.45 211.64,149.45 211.64,0 0,-149.44 -211.64,-149.44 -211.64,0z"/>
   <path class="fil0" d="M7090.35 5503.06c0,149.45 211.64,149.45 211.64,0 0,-149.44 -211.64,-149.44 -211.64,0z"/>
   <path class="fil0" d="M7936.91 5503.06c0,149.45 211.64,149.45 211.64,0 0,-149.44 -211.64,-149.44 -211.64,0z"/>
   <path class="fil0" d="M8783.47 5503.06c0,149.45 211.64,149.45 211.64,0 0,-149.44 -211.64,-149.44 -211.64,0z"/>
   <path class="fil0" d="M2011.01 6349.62c0,149.45 211.64,149.45 211.64,0 0,-149.44 -211.64,-149.44 -211.64,0z"/>
   <path class="fil0" d="M2857.57 6349.62c0,149.45 211.64,149.45 211.64,0 0,-149.44 -211.64,-149.44 -211.64,0z"/>
   <path class="fil0" d="M3704.12 6349.62c0,149.45 211.64,149.45 211.64,0 0,-149.44 -211.64,-149.44 -211.64,0z"/>
   <path class="fil0" d="M4550.68 6349.62c0,149.45 211.64,149.45 211.64,0 0,-149.44 -211.64,-149.44 -211.64,0z"/>
   <path class="fil0" d="M5397.24 6349.62c0,149.45 211.64,149.45 211.64,0 0,-149.44 -211.64,-149.44 -211.64,0z"/>
   <path class="fil0" d="M6243.8 6349.62c0,149.45 211.64,149.45 211.64,0 0,-149.44 -211.64,-149.44 -211.64,0z"/>
   <path class="fil0" d="M317.89 6349.62c0,149.45 211.64,149.45 211.64,0 0,-149.44 -211.64,-149.44 -211.64,0z"/>
   <path class="fil0" d="M1164.45 6349.62c0,149.45 211.64,149.45 211.64,0 0,-149.44 -211.64,-149.44 -211.64,0z"/>
   <path class="fil0" d="M7090.35 6349.62c0,149.45 211.64,149.45 211.64,0 0,-149.44 -211.64,-149.44 -211.64,0z"/>
   <path class="fil0" d="M7936.91 6349.62c0,149.45 211.64,149.45 211.64,0 0,-149.44 -211.64,-149.44 -211.64,0z"/>
   <path class="fil0" d="M8783.47 6349.62c0,149.45 211.64,149.45 211.64,0 0,-149.44 -211.64,-149.44 -211.64,0z"/>
   <path class="fil0" d="M317.89 7196.17c0,149.45 211.64,149.45 211.64,0 0,-149.44 -211.64,-149.44 -211.64,0z"/>
   <path class="fil0" d="M1164.45 7196.17c0,149.45 211.64,149.45 211.64,0 0,-149.44 -211.64,-149.44 -211.64,0z"/>
   <path class="fil0" d="M2011.01 7196.17c0,149.45 211.64,149.45 211.64,0 0,-149.44 -211.64,-149.44 -211.64,0z"/>
   <path class="fil0" d="M2857.57 7196.17c0,149.45 211.64,149.45 211.64,0 0,-149.44 -211.64,-149.44 -211.64,0z"/>
   <path class="fil0" d="M3704.12 7196.17c0,149.45 211.64,149.45 211.64,0 0,-149.44 -211.64,-149.44 -211.64,0z"/>
   <path class="fil0" d="M4550.68 7196.17c0,149.45 211.64,149.45 211.64,0 0,-149.44 -211.64,-149.44 -211.64,0z"/>
   <path class="fil0" d="M5397.24 7196.17c0,149.45 211.64,149.45 211.64,0 0,-149.44 -211.64,-149.44 -211.64,0z"/>
   <path class="fil0" d="M6243.8 7196.17c0,149.45 211.64,149.45 211.64,0 0,-149.44 -211.64,-149.44 -211.64,0z"/>
   <path class="fil0" d="M7090.35 7196.17c0,149.45 211.64,149.45 211.64,0 0,-149.44 -211.64,-149.44 -211.64,0z"/>
   <path class="fil0" d="M7936.91 7196.17c0,149.45 211.64,149.45 211.64,0 0,-149.44 -211.64,-149.44 -211.64,0z"/>
   <path class="fil0" d="M8783.47 7196.17c0,149.45 211.64,149.45 211.64,0 0,-149.44 -211.64,-149.44 -211.64,0z"/>
   <path class="fil0" d="M317.89 8042.73c0,149.45 211.64,149.45 211.64,0 0,-149.44 -211.64,-149.44 -211.64,0z"/>
   <path class="fil0" d="M1164.45 8042.73c0,149.45 211.64,149.45 211.64,0 0,-149.44 -211.64,-149.44 -211.64,0z"/>
   <path class="fil0" d="M2011.01 8042.73c0,149.45 211.64,149.45 211.64,0 0,-149.44 -211.64,-149.44 -211.64,0z"/>
   <path class="fil0" d="M2857.57 8042.73c0,149.45 211.64,149.45 211.64,0 0,-149.44 -211.64,-149.44 -211.64,0z"/>
   <path class="fil0" d="M3704.12 8042.73c0,149.45 211.64,149.45 211.64,0 0,-149.44 -211.64,-149.44 -211.64,0z"/>
   <path class="fil0" d="M4550.68 8042.73c0,149.45 211.64,149.45 211.64,0 0,-149.44 -211.64,-149.44 -211.64,0z"/>
   <path class="fil0" d="M5397.24 8042.73c0,149.45 211.64,149.45 211.64,0 0,-149.44 -211.64,-149.44 -211.64,0z"/>
   <path class="fil0" d="M6243.8 8042.73c0,149.45 211.64,149.45 211.64,0 0,-149.44 -211.64,-149.44 -211.64,0z"/>
   <path class="fil0" d="M7090.35 8042.73c0,149.45 211.64,149.45 211.64,0 0,-149.44 -211.64,-149.44 -211.64,0z"/>
   <path class="fil0" d="M7936.91 8042.73c0,149.45 211.64,149.45 211.64,0 0,-149.44 -211.64,-149.44 -211.64,0z"/>
   <path class="fil0" d="M8783.47 8042.73c0,149.45 211.64,149.45 211.64,0 0,-149.44 -211.64,-149.44 -211.64,0z"/>
   <path class="fil0" d="M317.89 8889.3c0,149.44 211.64,149.44 211.64,0 0,-149.45 -211.64,-149.45 -211.64,0z"/>
   <path class="fil0" d="M1164.45 8889.3c0,149.44 211.64,149.44 211.64,0 0,-149.45 -211.64,-149.45 -211.64,0z"/>
   <path class="fil0" d="M2011.01 8889.3c0,149.44 211.64,149.44 211.64,0 0,-149.45 -211.64,-149.45 -211.64,0z"/>
   <path class="fil0" d="M2857.57 8889.3c0,149.44 211.64,149.44 211.64,0 0,-149.45 -211.64,-149.45 -211.64,0z"/>
   <path class="fil0" d="M3704.12 8889.3c0,149.44 211.64,149.44 211.64,0 0,-149.45 -211.64,-149.45 -211.64,0z"/>
   <path class="fil0" d="M4550.68 8889.3c0,149.44 211.64,149.44 211.64,0 0,-149.45 -211.64,-149.45 -211.64,0z"/>
   <path class="fil0" d="M5397.24 8889.3c0,149.44 211.64,149.44 211.64,0 0,-149.45 -211.64,-149.45 -211.64,0z"/>
   <path class="fil0" d="M6243.8 8889.3c0,149.44 211.64,149.44 211.64,0 0,-149.45 -211.64,-149.45 -211.64,0z"/>
   <path class="fil0" d="M7090.35 8889.3c0,149.44 211.64,149.44 211.64,0 0,-149.45 -211.64,-149.45 -211.64,0z"/>
   <path class="fil0" d="M7936.91 8889.3c0,149.44 211.64,149.44 211.64,0 0,-149.45 -211.64,-149.45 -211.64,0z"/>
   <path class="fil0" d="M8783.47 8889.3c0,149.44 211.64,149.44 211.64,0 0,-149.45 -211.64,-149.45 -211.64,0z"/>
  </g>
 </g>
</svg>
