<?xml version="1.0" encoding="UTF-8"?>
<!DOCTYPE svg PUBLIC "-//W3C//DTD SVG 1.1//EN" "http://www.w3.org/Graphics/SVG/1.1/DTD/svg11.dtd">
<svg xmlns="http://www.w3.org/2000/svg" xml:space="preserve" width="30mm" height="40mm" version="1.1" style="shape-rendering:geometricPrecision; text-rendering:geometricPrecision; image-rendering:optimizeQuality; fill-rule:evenodd; clip-rule:evenodd"
viewBox="0 0 451.09 601.45"
 xmlns:xlink="http://www.w3.org/1999/xlink">
 <defs>
  <style type="text/css">
   <![CDATA[
    .fil1 {fill:#FEAF3D}
    .fil0 {fill:#323232;fill-rule:nonzero}
   ]]>
  </style>
 </defs>
 <g id="x0020_1">
  <metadata id="Layer"/>
  <g id="_2130293401072">
   <path class="fil0" d="M361.45 598.11l0 3.34 -274.94 0 0 -3.34c15.57,-5.52 27.99,-11.62 37.57,-18.3 9.43,-6.83 16.46,-15.25 21.25,-25.13 4.64,-10.02 7.63,-20.19 9.13,-30.65 1.5,-10.46 2.24,-24.26 2.24,-41.26l0 -364.36c0,-16.71 -0.75,-30.36 -2.24,-40.82 -1.5,-10.61 -4.49,-20.78 -9.13,-30.65 -4.79,-10.02 -11.82,-18.3 -21.25,-25.13 -9.58,-6.83 -22,-12.93 -37.57,-18.3l0 -3.49 274.94 0 0 3.49c-15.57,5.37 -27.99,11.48 -37.57,18.3 -9.43,6.83 -16.46,15.11 -21.25,25.13 -4.64,9.88 -7.63,20.05 -9.13,30.65 -1.5,10.46 -2.24,24.12 -2.24,40.82l0 364.36c0,33.41 4.34,58.4 13.02,74.82 8.53,16.56 27.69,29.93 57.17,40.53z"/>
   <polygon class="fil1" points="0,81.13 133.15,81.13 133.15,518.35 0,518.35 "/>
   <polygon class="fil1" points="317.95,81.13 451.09,81.13 451.09,518.35 317.95,518.35 "/>
  </g>
 </g>
</svg>
