<?xml version="1.0" encoding="UTF-8"?>
<!DOCTYPE svg PUBLIC "-//W3C//DTD SVG 1.1//EN" "http://www.w3.org/Graphics/SVG/1.1/DTD/svg11.dtd">
<svg xmlns="http://www.w3.org/2000/svg" xml:space="preserve" width="103.704mm" height="137.691mm" version="1.1" style="shape-rendering:geometricPrecision; text-rendering:geometricPrecision; image-rendering:optimizeQuality; fill-rule:evenodd; clip-rule:evenodd"
viewBox="0 0 2525701.42 3353474.37"
 xmlns:xlink="http://www.w3.org/1999/xlink">
 <defs>
  <style type="text/css">
   <![CDATA[
    .fil0 {fill:white}
   ]]>
  </style>
 </defs>
 <g id="x0020_1">
  <metadata id="Layer"/>
  <g id="_2128717616400">
   <path class="fil0" d="M-0 27299.52c0,36398.55 51544.93,36398.55 51544.93,0 0,-36398.55 -51544.93,-36398.55 -51544.93,0z"/>
   <path class="fil0" d="M206179.71 27299.52c0,36398.55 51544.93,36398.55 51544.93,0 0,-36398.55 -51544.93,-36398.55 -51544.93,0z"/>
   <path class="fil0" d="M412359.42 27299.52c0,36398.55 51544.93,36398.55 51544.93,0 0,-36398.55 -51544.93,-36398.55 -51544.93,0z"/>
   <path class="fil0" d="M618539.12 27299.52c0,36398.55 51544.93,36398.55 51544.93,0 0,-36398.55 -51544.93,-36398.55 -51544.93,0z"/>
   <path class="fil0" d="M824718.83 27299.52c0,36398.55 51544.93,36398.55 51544.93,0 0,-36398.55 -51544.93,-36398.55 -51544.93,0z"/>
   <path class="fil0" d="M1030898.54 27299.52c0,36398.55 51544.93,36398.55 51544.93,0 0,-36398.55 -51544.93,-36398.55 -51544.93,0z"/>
   <path class="fil0" d="M1237078.25 27299.52c0,36398.55 51544.93,36398.55 51544.93,0 0,-36398.55 -51544.93,-36398.55 -51544.93,0z"/>
   <path class="fil0" d="M1443257.96 27299.52c0,36398.55 51544.93,36398.55 51544.93,0 0,-36398.55 -51544.93,-36398.55 -51544.93,0z"/>
   <path class="fil0" d="M1649437.66 27299.52c0,36398.55 51544.93,36398.55 51544.93,0 0,-36398.55 -51544.93,-36398.55 -51544.93,0z"/>
   <path class="fil0" d="M1855617.37 27299.52c0,36398.55 51544.93,36398.55 51544.93,0 0,-36398.55 -51544.93,-36398.55 -51544.93,0z"/>
   <path class="fil0" d="M2061797.08 27299.52c0,36398.55 51544.93,36398.55 51544.93,0 0,-36398.55 -51544.93,-36398.55 -51544.93,0z"/>
   <path class="fil0" d="M2267976.79 27299.52c0,36398.55 51544.93,36398.55 51544.93,0 0,-36398.55 -51544.93,-36398.55 -51544.93,0z"/>
   <path class="fil0" d="M2474156.49 27299.52c0,36398.55 51544.93,36398.55 51544.93,0 0,-36398.55 -51544.93,-36398.55 -51544.93,0z"/>
   <path class="fil0" d="M-0 233479.23c0,36398.55 51544.93,36398.55 51544.93,0 0,-36398.55 -51544.93,-36398.55 -51544.93,0z"/>
   <path class="fil0" d="M206179.71 233479.23c0,36398.55 51544.93,36398.55 51544.93,0 0,-36398.55 -51544.93,-36398.55 -51544.93,0z"/>
   <path class="fil0" d="M412359.42 233479.23c0,36398.55 51544.93,36398.55 51544.93,0 0,-36398.55 -51544.93,-36398.55 -51544.93,0z"/>
   <path class="fil0" d="M618539.12 233479.23c0,36398.55 51544.93,36398.55 51544.93,0 0,-36398.55 -51544.93,-36398.55 -51544.93,0z"/>
   <path class="fil0" d="M824718.83 233479.23c0,36398.55 51544.93,36398.55 51544.93,0 0,-36398.55 -51544.93,-36398.55 -51544.93,0z"/>
   <path class="fil0" d="M1030898.54 233479.23c0,36398.55 51544.93,36398.55 51544.93,0 0,-36398.55 -51544.93,-36398.55 -51544.93,0z"/>
   <path class="fil0" d="M1237078.25 233479.23c0,36398.55 51544.93,36398.55 51544.93,0 0,-36398.55 -51544.93,-36398.55 -51544.93,0z"/>
   <path class="fil0" d="M1443257.96 233479.23c0,36398.55 51544.93,36398.55 51544.93,0 0,-36398.55 -51544.93,-36398.55 -51544.93,0z"/>
   <path class="fil0" d="M1649437.66 233479.23c0,36398.55 51544.93,36398.55 51544.93,0 0,-36398.55 -51544.93,-36398.55 -51544.93,0z"/>
   <path class="fil0" d="M1855617.37 233479.23c0,36398.55 51544.93,36398.55 51544.93,0 0,-36398.55 -51544.93,-36398.55 -51544.93,0z"/>
   <path class="fil0" d="M2061797.08 233479.23c0,36398.55 51544.93,36398.55 51544.93,0 0,-36398.55 -51544.93,-36398.55 -51544.93,0z"/>
   <path class="fil0" d="M2267976.79 233479.23c0,36398.55 51544.93,36398.55 51544.93,0 0,-36398.55 -51544.93,-36398.55 -51544.93,0z"/>
   <path class="fil0" d="M2474156.49 233479.23c0,36398.55 51544.93,36398.55 51544.93,0 0,-36398.55 -51544.93,-36398.55 -51544.93,0z"/>
   <path class="fil0" d="M-0 439658.94c0,36398.55 51544.93,36398.55 51544.93,0 0,-36398.55 -51544.93,-36398.55 -51544.93,0z"/>
   <path class="fil0" d="M206179.71 439658.94c0,36398.55 51544.93,36398.55 51544.93,0 0,-36398.55 -51544.93,-36398.55 -51544.93,0z"/>
   <path class="fil0" d="M412359.42 439658.94c0,36398.55 51544.93,36398.55 51544.93,0 0,-36398.55 -51544.93,-36398.55 -51544.93,0z"/>
   <path class="fil0" d="M618539.12 439658.94c0,36398.55 51544.93,36398.55 51544.93,0 0,-36398.55 -51544.93,-36398.55 -51544.93,0z"/>
   <path class="fil0" d="M824718.83 439658.94c0,36398.55 51544.93,36398.55 51544.93,0 0,-36398.55 -51544.93,-36398.55 -51544.93,0z"/>
   <path class="fil0" d="M1030898.54 439658.94c0,36398.55 51544.93,36398.55 51544.93,0 0,-36398.55 -51544.93,-36398.55 -51544.93,0z"/>
   <path class="fil0" d="M1237078.25 439658.94c0,36398.55 51544.93,36398.55 51544.93,0 0,-36398.55 -51544.93,-36398.55 -51544.93,0z"/>
   <path class="fil0" d="M1443257.96 439658.94c0,36398.55 51544.93,36398.55 51544.93,0 0,-36398.55 -51544.93,-36398.55 -51544.93,0z"/>
   <path class="fil0" d="M1649437.66 439658.94c0,36398.55 51544.93,36398.55 51544.93,0 0,-36398.55 -51544.93,-36398.55 -51544.93,0z"/>
   <path class="fil0" d="M1855617.37 439658.94c0,36398.55 51544.93,36398.55 51544.93,0 0,-36398.55 -51544.93,-36398.55 -51544.93,0z"/>
   <path class="fil0" d="M2061797.08 439658.94c0,36398.55 51544.93,36398.55 51544.93,0 0,-36398.55 -51544.93,-36398.55 -51544.93,0z"/>
   <path class="fil0" d="M2267976.79 439658.94c0,36398.55 51544.93,36398.55 51544.93,0 0,-36398.55 -51544.93,-36398.55 -51544.93,0z"/>
   <path class="fil0" d="M2474156.49 439658.94c0,36398.55 51544.93,36398.55 51544.93,0 0,-36398.55 -51544.93,-36398.55 -51544.93,0z"/>
   <path class="fil0" d="M-0 645838.65c0,36398.55 51544.93,36398.55 51544.93,0 0,-36398.55 -51544.93,-36398.55 -51544.93,0z"/>
   <path class="fil0" d="M206179.71 645838.65c0,36398.55 51544.93,36398.55 51544.93,0 0,-36398.55 -51544.93,-36398.55 -51544.93,0z"/>
   <path class="fil0" d="M412359.42 645838.65c0,36398.55 51544.93,36398.55 51544.93,0 0,-36398.55 -51544.93,-36398.55 -51544.93,0z"/>
   <path class="fil0" d="M618539.12 645838.65c0,36398.55 51544.93,36398.55 51544.93,0 0,-36398.55 -51544.93,-36398.55 -51544.93,0z"/>
   <path class="fil0" d="M824718.83 645838.65c0,36398.55 51544.93,36398.55 51544.93,0 0,-36398.55 -51544.93,-36398.55 -51544.93,0z"/>
   <path class="fil0" d="M1030898.54 645838.65c0,36398.55 51544.93,36398.55 51544.93,0 0,-36398.55 -51544.93,-36398.55 -51544.93,0z"/>
   <path class="fil0" d="M1237078.25 645838.65c0,36398.55 51544.93,36398.55 51544.93,0 0,-36398.55 -51544.93,-36398.55 -51544.93,0z"/>
   <path class="fil0" d="M1443257.96 645838.65c0,36398.55 51544.93,36398.55 51544.93,0 0,-36398.55 -51544.93,-36398.55 -51544.93,0z"/>
   <path class="fil0" d="M1649437.66 645838.65c0,36398.55 51544.93,36398.55 51544.93,0 0,-36398.55 -51544.93,-36398.55 -51544.93,0z"/>
   <path class="fil0" d="M1855617.37 645838.65c0,36398.55 51544.93,36398.55 51544.93,0 0,-36398.55 -51544.93,-36398.55 -51544.93,0z"/>
   <path class="fil0" d="M2061797.08 645838.65c0,36398.55 51544.93,36398.55 51544.93,0 0,-36398.55 -51544.93,-36398.55 -51544.93,0z"/>
   <path class="fil0" d="M2267976.79 645838.65c0,36398.55 51544.93,36398.55 51544.93,0 0,-36398.55 -51544.93,-36398.55 -51544.93,0z"/>
   <path class="fil0" d="M2474156.49 645838.65c0,36398.55 51544.93,36398.55 51544.93,0 0,-36398.55 -51544.93,-36398.55 -51544.93,0z"/>
   <path class="fil0" d="M-0 852018.35c0,36398.55 51544.93,36398.55 51544.93,0 0,-36396.12 -51544.93,-36396.12 -51544.93,0z"/>
   <path class="fil0" d="M206179.71 852018.35c0,36398.55 51544.93,36398.55 51544.93,0 0,-36396.12 -51544.93,-36396.12 -51544.93,0z"/>
   <path class="fil0" d="M412359.42 852018.35c0,36398.55 51544.93,36398.55 51544.93,0 0,-36396.12 -51544.93,-36396.12 -51544.93,0z"/>
   <path class="fil0" d="M618539.12 852018.35c0,36398.55 51544.93,36398.55 51544.93,0 0,-36396.12 -51544.93,-36396.12 -51544.93,0z"/>
   <path class="fil0" d="M824718.83 852018.35c0,36398.55 51544.93,36398.55 51544.93,0 0,-36396.12 -51544.93,-36396.12 -51544.93,0z"/>
   <path class="fil0" d="M1030898.54 852018.35c0,36398.55 51544.93,36398.55 51544.93,0 0,-36396.12 -51544.93,-36396.12 -51544.93,0z"/>
   <path class="fil0" d="M1237078.25 852018.35c0,36398.55 51544.93,36398.55 51544.93,0 0,-36396.12 -51544.93,-36396.12 -51544.93,0z"/>
   <path class="fil0" d="M1443257.96 852018.35c0,36398.55 51544.93,36398.55 51544.93,0 0,-36396.12 -51544.93,-36396.12 -51544.93,0z"/>
   <path class="fil0" d="M1649437.66 852018.35c0,36398.55 51544.93,36398.55 51544.93,0 0,-36396.12 -51544.93,-36396.12 -51544.93,0z"/>
   <path class="fil0" d="M1855617.37 852018.35c0,36398.55 51544.93,36398.55 51544.93,0 0,-36396.12 -51544.93,-36396.12 -51544.93,0z"/>
   <path class="fil0" d="M2061797.08 852018.35c0,36398.55 51544.93,36398.55 51544.93,0 0,-36396.12 -51544.93,-36396.12 -51544.93,0z"/>
   <path class="fil0" d="M2267976.79 852018.35c0,36398.55 51544.93,36398.55 51544.93,0 0,-36396.12 -51544.93,-36396.12 -51544.93,0z"/>
   <path class="fil0" d="M2474156.49 852018.35c0,36398.55 51544.93,36398.55 51544.93,0 0,-36396.12 -51544.93,-36396.12 -51544.93,0z"/>
   <path class="fil0" d="M-0 1058198.06c0,36398.55 51544.93,36398.55 51544.93,0 0,-36396.12 -51544.93,-36396.12 -51544.93,0z"/>
   <path class="fil0" d="M206179.71 1058198.06c0,36398.55 51544.93,36398.55 51544.93,0 0,-36396.12 -51544.93,-36396.12 -51544.93,0z"/>
   <path class="fil0" d="M412359.42 1058198.06c0,36398.55 51544.93,36398.55 51544.93,0 0,-36396.12 -51544.93,-36396.12 -51544.93,0z"/>
   <path class="fil0" d="M618539.12 1058198.06c0,36398.55 51544.93,36398.55 51544.93,0 0,-36396.12 -51544.93,-36396.12 -51544.93,0z"/>
   <path class="fil0" d="M824718.83 1058198.06c0,36398.55 51544.93,36398.55 51544.93,0 0,-36396.12 -51544.93,-36396.12 -51544.93,0z"/>
   <path class="fil0" d="M1030898.54 1058198.06c0,36398.55 51544.93,36398.55 51544.93,0 0,-36396.12 -51544.93,-36396.12 -51544.93,0z"/>
   <path class="fil0" d="M1237078.25 1058198.06c0,36398.55 51544.93,36398.55 51544.93,0 0,-36396.12 -51544.93,-36396.12 -51544.93,0z"/>
   <path class="fil0" d="M1443257.96 1058198.06c0,36398.55 51544.93,36398.55 51544.93,0 0,-36396.12 -51544.93,-36396.12 -51544.93,0z"/>
   <path class="fil0" d="M1649437.66 1058198.06c0,36398.55 51544.93,36398.55 51544.93,0 0,-36396.12 -51544.93,-36396.12 -51544.93,0z"/>
   <path class="fil0" d="M1855617.37 1058198.06c0,36398.55 51544.93,36398.55 51544.93,0 0,-36396.12 -51544.93,-36396.12 -51544.93,0z"/>
   <path class="fil0" d="M2061797.08 1058198.06c0,36398.55 51544.93,36398.55 51544.93,0 0,-36396.12 -51544.93,-36396.12 -51544.93,0z"/>
   <path class="fil0" d="M2267976.79 1058198.06c0,36398.55 51544.93,36398.55 51544.93,0 0,-36396.12 -51544.93,-36396.12 -51544.93,0z"/>
   <path class="fil0" d="M2474156.49 1058198.06c0,36398.55 51544.93,36398.55 51544.93,0 0,-36396.12 -51544.93,-36396.12 -51544.93,0z"/>
   <path class="fil0" d="M-0 1264377.77c0,36398.55 51544.93,36398.55 51544.93,0 0,-36396.12 -51544.93,-36396.12 -51544.93,0z"/>
   <path class="fil0" d="M824718.83 1264377.77c0,36398.55 51544.93,36398.55 51544.93,0 0,-36396.12 -51544.93,-36396.12 -51544.93,0z"/>
   <path class="fil0" d="M412359.42 1264377.77c0,36398.55 51544.93,36398.55 51544.93,0 0,-36396.12 -51544.93,-36396.12 -51544.93,0z"/>
   <path class="fil0" d="M1030898.54 1264377.77c0,36398.55 51544.93,36398.55 51544.93,0 0,-36396.12 -51544.93,-36396.12 -51544.93,0z"/>
   <path class="fil0" d="M206179.71 1264377.77c0,36398.55 51544.93,36398.55 51544.93,0 0,-36396.12 -51544.93,-36396.12 -51544.93,0z"/>
   <path class="fil0" d="M618539.12 1264377.77c0,36398.55 51544.93,36398.55 51544.93,0 0,-36396.12 -51544.93,-36396.12 -51544.93,0z"/>
   <path class="fil0" d="M1237078.25 1264377.77c0,36398.55 51544.93,36398.55 51544.93,0 0,-36396.12 -51544.93,-36396.12 -51544.93,0z"/>
   <path class="fil0" d="M1443257.96 1264377.77c0,36398.55 51544.93,36398.55 51544.93,0 0,-36396.12 -51544.93,-36396.12 -51544.93,0z"/>
   <path class="fil0" d="M1649437.66 1264377.77c0,36398.55 51544.93,36398.55 51544.93,0 0,-36396.12 -51544.93,-36396.12 -51544.93,0z"/>
   <path class="fil0" d="M1855617.37 1264377.77c0,36398.55 51544.93,36398.55 51544.93,0 0,-36396.12 -51544.93,-36396.12 -51544.93,0z"/>
   <path class="fil0" d="M2061797.08 1264377.77c0,36398.55 51544.93,36398.55 51544.93,0 0,-36396.12 -51544.93,-36396.12 -51544.93,0z"/>
   <path class="fil0" d="M2267976.79 1264377.77c0,36398.55 51544.93,36398.55 51544.93,0 0,-36396.12 -51544.93,-36396.12 -51544.93,0z"/>
   <path class="fil0" d="M2474156.49 1264377.77c0,36398.55 51544.93,36398.55 51544.93,0 0,-36396.12 -51544.93,-36396.12 -51544.93,0z"/>
   <path class="fil0" d="M-0 1470557.48c0,36398.55 51544.93,36398.55 51544.93,0 0,-36396.12 -51544.93,-36396.12 -51544.93,0z"/>
   <path class="fil0" d="M206179.71 1470557.48c0,36398.55 51544.93,36398.55 51544.93,0 0,-36396.12 -51544.93,-36396.12 -51544.93,0z"/>
   <path class="fil0" d="M412359.42 1470557.48c0,36398.55 51544.93,36398.55 51544.93,0 0,-36396.12 -51544.93,-36396.12 -51544.93,0z"/>
   <path class="fil0" d="M618539.12 1470557.48c0,36398.55 51544.93,36398.55 51544.93,0 0,-36396.12 -51544.93,-36396.12 -51544.93,0z"/>
   <path class="fil0" d="M824718.83 1470557.48c0,36398.55 51544.93,36398.55 51544.93,0 0,-36396.12 -51544.93,-36396.12 -51544.93,0z"/>
   <path class="fil0" d="M1030898.54 1470557.48c0,36398.55 51544.93,36398.55 51544.93,0 0,-36396.12 -51544.93,-36396.12 -51544.93,0z"/>
   <path class="fil0" d="M1237078.25 1470557.48c0,36398.55 51544.93,36398.55 51544.93,0 0,-36396.12 -51544.93,-36396.12 -51544.93,0z"/>
   <path class="fil0" d="M1443257.96 1470557.48c0,36398.55 51544.93,36398.55 51544.93,0 0,-36396.12 -51544.93,-36396.12 -51544.93,0z"/>
   <path class="fil0" d="M1649437.66 1470557.48c0,36398.55 51544.93,36398.55 51544.93,0 0,-36396.12 -51544.93,-36396.12 -51544.93,0z"/>
   <path class="fil0" d="M1855617.37 1470557.48c0,36398.55 51544.93,36398.55 51544.93,0 0,-36396.12 -51544.93,-36396.12 -51544.93,0z"/>
   <path class="fil0" d="M2061797.08 1470557.48c0,36398.55 51544.93,36398.55 51544.93,0 0,-36396.12 -51544.93,-36396.12 -51544.93,0z"/>
   <path class="fil0" d="M2267976.79 1470557.48c0,36398.55 51544.93,36398.55 51544.93,0 0,-36396.12 -51544.93,-36396.12 -51544.93,0z"/>
   <path class="fil0" d="M2474156.49 1470557.48c0,36398.55 51544.93,36398.55 51544.93,0 0,-36396.12 -51544.93,-36396.12 -51544.93,0z"/>
   <path class="fil0" d="M824718.83 1676737.19c0,36398.55 51544.93,36398.55 51544.93,0 0,-36396.12 -51544.93,-36396.12 -51544.93,0z"/>
   <path class="fil0" d="M1030898.54 1676737.19c0,36398.55 51544.93,36398.55 51544.93,0 0,-36396.12 -51544.93,-36396.12 -51544.93,0z"/>
   <path class="fil0" d="M-0 1676737.19c0,36398.55 51544.93,36398.55 51544.93,0 0,-36396.12 -51544.93,-36396.12 -51544.93,0z"/>
   <path class="fil0" d="M206179.71 1676737.19c0,36398.55 51544.93,36398.55 51544.93,0 0,-36396.12 -51544.93,-36396.12 -51544.93,0z"/>
   <path class="fil0" d="M412359.42 1676737.19c0,36398.55 51544.93,36398.55 51544.93,0 0,-36396.12 -51544.93,-36396.12 -51544.93,0z"/>
   <path class="fil0" d="M618539.12 1676737.19c0,36398.55 51544.93,36398.55 51544.93,0 0,-36396.12 -51544.93,-36396.12 -51544.93,0z"/>
   <path class="fil0" d="M1237078.25 1676737.19c0,36398.55 51544.93,36398.55 51544.93,0 0,-36396.12 -51544.93,-36396.12 -51544.93,0z"/>
   <path class="fil0" d="M1443257.96 1676737.19c0,36398.55 51544.93,36398.55 51544.93,0 0,-36396.12 -51544.93,-36396.12 -51544.93,0z"/>
   <path class="fil0" d="M1649437.66 1676737.19c0,36398.55 51544.93,36398.55 51544.93,0 0,-36396.12 -51544.93,-36396.12 -51544.93,0z"/>
   <path class="fil0" d="M1855617.37 1676737.19c0,36398.55 51544.93,36398.55 51544.93,0 0,-36396.12 -51544.93,-36396.12 -51544.93,0z"/>
   <path class="fil0" d="M2061797.08 1676737.19c0,36398.55 51544.93,36398.55 51544.93,0 0,-36396.12 -51544.93,-36396.12 -51544.93,0z"/>
   <path class="fil0" d="M2267976.79 1676737.19c0,36398.55 51544.93,36398.55 51544.93,0 0,-36396.12 -51544.93,-36396.12 -51544.93,0z"/>
   <path class="fil0" d="M2474156.49 1676737.19c0,36398.55 51544.93,36398.55 51544.93,0 0,-36396.12 -51544.93,-36396.12 -51544.93,0z"/>
   <path class="fil0" d="M-0 1882916.89c0,36398.55 51544.93,36398.55 51544.93,0 0,-36396.12 -51544.93,-36396.12 -51544.93,0z"/>
   <path class="fil0" d="M206179.71 1882916.89c0,36398.55 51544.93,36398.55 51544.93,0 0,-36396.12 -51544.93,-36396.12 -51544.93,0z"/>
   <path class="fil0" d="M412359.42 1882916.89c0,36398.55 51544.93,36398.55 51544.93,0 0,-36396.12 -51544.93,-36396.12 -51544.93,0z"/>
   <path class="fil0" d="M618539.12 1882916.89c0,36398.55 51544.93,36398.55 51544.93,0 0,-36396.12 -51544.93,-36396.12 -51544.93,0z"/>
   <path class="fil0" d="M824718.83 1882916.89c0,36398.55 51544.93,36398.55 51544.93,0 0,-36396.12 -51544.93,-36396.12 -51544.93,0z"/>
   <path class="fil0" d="M1030898.54 1882916.89c0,36398.55 51544.93,36398.55 51544.93,0 0,-36396.12 -51544.93,-36396.12 -51544.93,0z"/>
   <path class="fil0" d="M1237078.25 1882916.89c0,36398.55 51544.93,36398.55 51544.93,0 0,-36396.12 -51544.93,-36396.12 -51544.93,0z"/>
   <path class="fil0" d="M1443257.96 1882916.89c0,36398.55 51544.93,36398.55 51544.93,0 0,-36396.12 -51544.93,-36396.12 -51544.93,0z"/>
   <path class="fil0" d="M1649437.66 1882916.89c0,36398.55 51544.93,36398.55 51544.93,0 0,-36396.12 -51544.93,-36396.12 -51544.93,0z"/>
   <path class="fil0" d="M1855617.37 1882916.89c0,36398.55 51544.93,36398.55 51544.93,0 0,-36396.12 -51544.93,-36396.12 -51544.93,0z"/>
   <path class="fil0" d="M2061797.08 1882916.89c0,36398.55 51544.93,36398.55 51544.93,0 0,-36396.12 -51544.93,-36396.12 -51544.93,0z"/>
   <path class="fil0" d="M2267976.79 1882916.89c0,36398.55 51544.93,36398.55 51544.93,0 0,-36396.12 -51544.93,-36396.12 -51544.93,0z"/>
   <path class="fil0" d="M2474156.49 1882916.89c0,36398.55 51544.93,36398.55 51544.93,0 0,-36396.12 -51544.93,-36396.12 -51544.93,0z"/>
   <path class="fil0" d="M618539.12 2089096.6c0,36398.55 51544.93,36398.55 51544.93,0 0,-36396.12 -51544.93,-36396.12 -51544.93,0z"/>
   <path class="fil0" d="M824718.83 2089096.6c0,36398.55 51544.93,36398.55 51544.93,0 0,-36396.12 -51544.93,-36396.12 -51544.93,0z"/>
   <path class="fil0" d="M1030898.54 2089096.6c0,36398.55 51544.93,36398.55 51544.93,0 0,-36396.12 -51544.93,-36396.12 -51544.93,0z"/>
   <path class="fil0" d="M1237078.25 2089096.6c0,36398.55 51544.93,36398.55 51544.93,0 0,-36396.12 -51544.93,-36396.12 -51544.93,0z"/>
   <path class="fil0" d="M1443257.96 2089096.6c0,36398.55 51544.93,36398.55 51544.93,0 0,-36396.12 -51544.93,-36396.12 -51544.93,0z"/>
   <path class="fil0" d="M1649437.66 2089096.6c0,36398.55 51544.93,36398.55 51544.93,0 0,-36396.12 -51544.93,-36396.12 -51544.93,0z"/>
   <path class="fil0" d="M-0 2089096.6c0,36398.55 51544.93,36398.55 51544.93,0 0,-36396.12 -51544.93,-36396.12 -51544.93,0z"/>
   <path class="fil0" d="M206179.71 2089096.6c0,36398.55 51544.93,36398.55 51544.93,0 0,-36396.12 -51544.93,-36396.12 -51544.93,0z"/>
   <path class="fil0" d="M412359.42 2089096.6c0,36398.55 51544.93,36398.55 51544.93,0 0,-36396.12 -51544.93,-36396.12 -51544.93,0z"/>
   <path class="fil0" d="M1855617.37 2089096.6c0,36398.55 51544.93,36398.55 51544.93,0 0,-36396.12 -51544.93,-36396.12 -51544.93,0z"/>
   <path class="fil0" d="M2061797.08 2089096.6c0,36398.55 51544.93,36398.55 51544.93,0 0,-36396.12 -51544.93,-36396.12 -51544.93,0z"/>
   <path class="fil0" d="M2267976.79 2089096.6c0,36398.55 51544.93,36398.55 51544.93,0 0,-36396.12 -51544.93,-36396.12 -51544.93,0z"/>
   <path class="fil0" d="M2474156.49 2089096.6c0,36398.55 51544.93,36398.55 51544.93,0 0,-36396.12 -51544.93,-36396.12 -51544.93,0z"/>
   <path class="fil0" d="M-0 2295276.31c0,36398.55 51544.93,36398.55 51544.93,0 0,-36396.12 -51544.93,-36396.12 -51544.93,0z"/>
   <path class="fil0" d="M206179.71 2295276.31c0,36398.55 51544.93,36398.55 51544.93,0 0,-36396.12 -51544.93,-36396.12 -51544.93,0z"/>
   <path class="fil0" d="M412359.42 2295276.31c0,36398.55 51544.93,36398.55 51544.93,0 0,-36396.12 -51544.93,-36396.12 -51544.93,0z"/>
   <path class="fil0" d="M618539.12 2295276.31c0,36398.55 51544.93,36398.55 51544.93,0 0,-36396.12 -51544.93,-36396.12 -51544.93,0z"/>
   <path class="fil0" d="M824718.83 2295276.31c0,36398.55 51544.93,36398.55 51544.93,0 0,-36396.12 -51544.93,-36396.12 -51544.93,0z"/>
   <path class="fil0" d="M1030898.54 2295276.31c0,36398.55 51544.93,36398.55 51544.93,0 0,-36396.12 -51544.93,-36396.12 -51544.93,0z"/>
   <path class="fil0" d="M1237078.25 2295276.31c0,36398.55 51544.93,36398.55 51544.93,0 0,-36396.12 -51544.93,-36396.12 -51544.93,0z"/>
   <path class="fil0" d="M1443257.96 2295276.31c0,36398.55 51544.93,36398.55 51544.93,0 0,-36396.12 -51544.93,-36396.12 -51544.93,0z"/>
   <path class="fil0" d="M1649437.66 2295276.31c0,36398.55 51544.93,36398.55 51544.93,0 0,-36396.12 -51544.93,-36396.12 -51544.93,0z"/>
   <path class="fil0" d="M1855617.37 2295276.31c0,36398.55 51544.93,36398.55 51544.93,0 0,-36396.12 -51544.93,-36396.12 -51544.93,0z"/>
   <path class="fil0" d="M2061797.08 2295276.31c0,36398.55 51544.93,36398.55 51544.93,0 0,-36396.12 -51544.93,-36396.12 -51544.93,0z"/>
   <path class="fil0" d="M2267976.79 2295276.31c0,36398.55 51544.93,36398.55 51544.93,0 0,-36396.12 -51544.93,-36396.12 -51544.93,0z"/>
   <path class="fil0" d="M2474156.49 2295276.31c0,36398.55 51544.93,36398.55 51544.93,0 0,-36396.12 -51544.93,-36396.12 -51544.93,0z"/>
   <path class="fil0" d="M-0 2501456.02c0,36398.55 51544.93,36398.55 51544.93,0 0,-36396.12 -51544.93,-36396.12 -51544.93,0z"/>
   <path class="fil0" d="M206179.71 2501456.02c0,36398.55 51544.93,36398.55 51544.93,0 0,-36396.12 -51544.93,-36396.12 -51544.93,0z"/>
   <path class="fil0" d="M412359.42 2501456.02c0,36398.55 51544.93,36398.55 51544.93,0 0,-36396.12 -51544.93,-36396.12 -51544.93,0z"/>
   <path class="fil0" d="M618539.12 2501456.02c0,36398.55 51544.93,36398.55 51544.93,0 0,-36396.12 -51544.93,-36396.12 -51544.93,0z"/>
   <path class="fil0" d="M824718.83 2501456.02c0,36398.55 51544.93,36398.55 51544.93,0 0,-36396.12 -51544.93,-36396.12 -51544.93,0z"/>
   <path class="fil0" d="M1030898.54 2501456.02c0,36398.55 51544.93,36398.55 51544.93,0 0,-36396.12 -51544.93,-36396.12 -51544.93,0z"/>
   <path class="fil0" d="M1237078.25 2501456.02c0,36398.55 51544.93,36398.55 51544.93,0 0,-36396.12 -51544.93,-36396.12 -51544.93,0z"/>
   <path class="fil0" d="M1443257.96 2501456.02c0,36398.55 51544.93,36398.55 51544.93,0 0,-36396.12 -51544.93,-36396.12 -51544.93,0z"/>
   <path class="fil0" d="M1649437.66 2501456.02c0,36398.55 51544.93,36398.55 51544.93,0 0,-36396.12 -51544.93,-36396.12 -51544.93,0z"/>
   <path class="fil0" d="M1855617.37 2501456.02c0,36398.55 51544.93,36398.55 51544.93,0 0,-36396.12 -51544.93,-36396.12 -51544.93,0z"/>
   <path class="fil0" d="M2061797.08 2501456.02c0,36398.55 51544.93,36398.55 51544.93,0 0,-36396.12 -51544.93,-36396.12 -51544.93,0z"/>
   <path class="fil0" d="M2267976.79 2501456.02c0,36398.55 51544.93,36398.55 51544.93,0 0,-36396.12 -51544.93,-36396.12 -51544.93,0z"/>
   <path class="fil0" d="M2474156.49 2501456.02c0,36398.55 51544.93,36398.55 51544.93,0 0,-36396.12 -51544.93,-36396.12 -51544.93,0z"/>
   <path class="fil0" d="M-0 2707638.16c0,36396.12 51544.93,36396.12 51544.93,0 0,-36398.55 -51544.93,-36398.55 -51544.93,0z"/>
   <path class="fil0" d="M206179.71 2707638.16c0,36396.12 51544.93,36396.12 51544.93,0 0,-36398.55 -51544.93,-36398.55 -51544.93,0z"/>
   <path class="fil0" d="M412359.42 2707638.16c0,36396.12 51544.93,36396.12 51544.93,0 0,-36398.55 -51544.93,-36398.55 -51544.93,0z"/>
   <path class="fil0" d="M618539.12 2707638.16c0,36396.12 51544.93,36396.12 51544.93,0 0,-36398.55 -51544.93,-36398.55 -51544.93,0z"/>
   <path class="fil0" d="M824718.83 2707638.16c0,36396.12 51544.93,36396.12 51544.93,0 0,-36398.55 -51544.93,-36398.55 -51544.93,0z"/>
   <path class="fil0" d="M1030898.54 2707638.16c0,36396.12 51544.93,36396.12 51544.93,0 0,-36398.55 -51544.93,-36398.55 -51544.93,0z"/>
   <path class="fil0" d="M1237078.25 2707638.16c0,36396.12 51544.93,36396.12 51544.93,0 0,-36398.55 -51544.93,-36398.55 -51544.93,0z"/>
   <path class="fil0" d="M1443257.96 2707638.16c0,36396.12 51544.93,36396.12 51544.93,0 0,-36398.55 -51544.93,-36398.55 -51544.93,0z"/>
   <path class="fil0" d="M1649437.66 2707638.16c0,36396.12 51544.93,36396.12 51544.93,0 0,-36398.55 -51544.93,-36398.55 -51544.93,0z"/>
   <path class="fil0" d="M1855617.37 2707638.16c0,36396.12 51544.93,36396.12 51544.93,0 0,-36398.55 -51544.93,-36398.55 -51544.93,0z"/>
   <path class="fil0" d="M2061797.08 2707638.16c0,36396.12 51544.93,36396.12 51544.93,0 0,-36398.55 -51544.93,-36398.55 -51544.93,0z"/>
   <path class="fil0" d="M2267976.79 2707638.16c0,36396.12 51544.93,36396.12 51544.93,0 0,-36398.55 -51544.93,-36398.55 -51544.93,0z"/>
   <path class="fil0" d="M2474156.49 2707638.16c0,36396.12 51544.93,36396.12 51544.93,0 0,-36398.55 -51544.93,-36398.55 -51544.93,0z"/>
   <path class="fil0" d="M-0 2913817.87c0,36396.12 51544.93,36396.12 51544.93,0 0,-36398.55 -51544.93,-36398.55 -51544.93,0z"/>
   <path class="fil0" d="M206179.71 2913817.87c0,36396.12 51544.93,36396.12 51544.93,0 0,-36398.55 -51544.93,-36398.55 -51544.93,0z"/>
   <path class="fil0" d="M412359.42 2913817.87c0,36396.12 51544.93,36396.12 51544.93,0 0,-36398.55 -51544.93,-36398.55 -51544.93,0z"/>
   <path class="fil0" d="M618539.12 2913817.87c0,36396.12 51544.93,36396.12 51544.93,0 0,-36398.55 -51544.93,-36398.55 -51544.93,0z"/>
   <path class="fil0" d="M824718.83 2913817.87c0,36396.12 51544.93,36396.12 51544.93,0 0,-36398.55 -51544.93,-36398.55 -51544.93,0z"/>
   <path class="fil0" d="M1030898.54 2913817.87c0,36396.12 51544.93,36396.12 51544.93,0 0,-36398.55 -51544.93,-36398.55 -51544.93,0z"/>
   <path class="fil0" d="M1237078.25 2913817.87c0,36396.12 51544.93,36396.12 51544.93,0 0,-36398.55 -51544.93,-36398.55 -51544.93,0z"/>
   <path class="fil0" d="M1443257.96 2913817.87c0,36396.12 51544.93,36396.12 51544.93,0 0,-36398.55 -51544.93,-36398.55 -51544.93,0z"/>
   <path class="fil0" d="M1649437.66 2913817.87c0,36396.12 51544.93,36396.12 51544.93,0 0,-36398.55 -51544.93,-36398.55 -51544.93,0z"/>
   <path class="fil0" d="M1855617.37 2913817.87c0,36396.12 51544.93,36396.12 51544.93,0 0,-36398.55 -51544.93,-36398.55 -51544.93,0z"/>
   <path class="fil0" d="M2061797.08 2913817.87c0,36396.12 51544.93,36396.12 51544.93,0 0,-36398.55 -51544.93,-36398.55 -51544.93,0z"/>
   <path class="fil0" d="M2267976.79 2913817.87c0,36396.12 51544.93,36396.12 51544.93,0 0,-36398.55 -51544.93,-36398.55 -51544.93,0z"/>
   <path class="fil0" d="M2474156.49 2913817.87c0,36396.12 51544.93,36396.12 51544.93,0 0,-36398.55 -51544.93,-36398.55 -51544.93,0z"/>
   <path class="fil0" d="M-0 3119997.58c0,36396.12 51544.93,36396.12 51544.93,0 0,-36398.55 -51544.93,-36398.55 -51544.93,0z"/>
   <path class="fil0" d="M206179.71 3119997.58c0,36396.12 51544.93,36396.12 51544.93,0 0,-36398.55 -51544.93,-36398.55 -51544.93,0z"/>
   <path class="fil0" d="M412359.42 3119997.58c0,36396.12 51544.93,36396.12 51544.93,0 0,-36398.55 -51544.93,-36398.55 -51544.93,0z"/>
   <path class="fil0" d="M618539.12 3119997.58c0,36396.12 51544.93,36396.12 51544.93,0 0,-36398.55 -51544.93,-36398.55 -51544.93,0z"/>
   <path class="fil0" d="M824718.83 3119997.58c0,36396.12 51544.93,36396.12 51544.93,0 0,-36398.55 -51544.93,-36398.55 -51544.93,0z"/>
   <path class="fil0" d="M1030898.54 3119997.58c0,36396.12 51544.93,36396.12 51544.93,0 0,-36398.55 -51544.93,-36398.55 -51544.93,0z"/>
   <path class="fil0" d="M1237078.25 3119997.58c0,36396.12 51544.93,36396.12 51544.93,0 0,-36398.55 -51544.93,-36398.55 -51544.93,0z"/>
   <path class="fil0" d="M1443257.96 3119997.58c0,36396.12 51544.93,36396.12 51544.93,0 0,-36398.55 -51544.93,-36398.55 -51544.93,0z"/>
   <path class="fil0" d="M1649437.66 3119997.58c0,36396.12 51544.93,36396.12 51544.93,0 0,-36398.55 -51544.93,-36398.55 -51544.93,0z"/>
   <path class="fil0" d="M1855617.37 3119997.58c0,36396.12 51544.93,36396.12 51544.93,0 0,-36398.55 -51544.93,-36398.55 -51544.93,0z"/>
   <path class="fil0" d="M2061797.08 3119997.58c0,36396.12 51544.93,36396.12 51544.93,0 0,-36398.55 -51544.93,-36398.55 -51544.93,0z"/>
   <path class="fil0" d="M2267976.79 3119997.58c0,36396.12 51544.93,36396.12 51544.93,0 0,-36398.55 -51544.93,-36398.55 -51544.93,0z"/>
   <path class="fil0" d="M2474156.49 3119997.58c0,36396.12 51544.93,36396.12 51544.93,0 0,-36398.55 -51544.93,-36398.55 -51544.93,0z"/>
   <path class="fil0" d="M-0 3326177.28c0,36396.12 51544.93,36396.12 51544.93,0 0,-36398.55 -51544.93,-36398.55 -51544.93,0z"/>
   <path class="fil0" d="M206179.71 3326177.28c0,36396.12 51544.93,36396.12 51544.93,0 0,-36398.55 -51544.93,-36398.55 -51544.93,0z"/>
   <path class="fil0" d="M412359.42 3326177.28c0,36396.12 51544.93,36396.12 51544.93,0 0,-36398.55 -51544.93,-36398.55 -51544.93,0z"/>
   <path class="fil0" d="M618539.12 3326177.28c0,36396.12 51544.93,36396.12 51544.93,0 0,-36398.55 -51544.93,-36398.55 -51544.93,0z"/>
   <path class="fil0" d="M824718.83 3326177.28c0,36396.12 51544.93,36396.12 51544.93,0 0,-36398.55 -51544.93,-36398.55 -51544.93,0z"/>
   <path class="fil0" d="M1030898.54 3326177.28c0,36396.12 51544.93,36396.12 51544.93,0 0,-36398.55 -51544.93,-36398.55 -51544.93,0z"/>
   <path class="fil0" d="M1237078.25 3326177.28c0,36396.12 51544.93,36396.12 51544.93,0 0,-36398.55 -51544.93,-36398.55 -51544.93,0z"/>
   <path class="fil0" d="M1443257.96 3326177.28c0,36396.12 51544.93,36396.12 51544.93,0 0,-36398.55 -51544.93,-36398.55 -51544.93,0z"/>
   <path class="fil0" d="M1649437.66 3326177.28c0,36396.12 51544.93,36396.12 51544.93,0 0,-36398.55 -51544.93,-36398.55 -51544.93,0z"/>
   <path class="fil0" d="M1855617.37 3326177.28c0,36396.12 51544.93,36396.12 51544.93,0 0,-36398.55 -51544.93,-36398.55 -51544.93,0z"/>
   <path class="fil0" d="M2061797.08 3326177.28c0,36396.12 51544.93,36396.12 51544.93,0 0,-36398.55 -51544.93,-36398.55 -51544.93,0z"/>
   <path class="fil0" d="M2267976.79 3326177.28c0,36396.12 51544.93,36396.12 51544.93,0 0,-36398.55 -51544.93,-36398.55 -51544.93,0z"/>
   <path class="fil0" d="M2474156.49 3326177.28c0,36396.12 51544.93,36396.12 51544.93,0 0,-36398.55 -51544.93,-36398.55 -51544.93,0z"/>
  </g>
 </g>
</svg>
