<?xml version="1.0" encoding="UTF-8"?>
<!DOCTYPE svg PUBLIC "-//W3C//DTD SVG 1.1//EN" "http://www.w3.org/Graphics/SVG/1.1/DTD/svg11.dtd">
<svg xmlns="http://www.w3.org/2000/svg" xml:space="preserve" width="35.2mm" height="28.2001mm" version="1.1" style="shape-rendering:geometricPrecision; text-rendering:geometricPrecision; image-rendering:optimizeQuality; fill-rule:evenodd; clip-rule:evenodd"
viewBox="0 0 759.45 608.42"
 xmlns:xlink="http://www.w3.org/1999/xlink">
 <defs>
  <style type="text/css">
   <![CDATA[
    .fil0 {fill:#FFB12C}
   ]]>
  </style>
 </defs>
 <g id="x0020_1">
  <metadata id="Layer"/>
  <g id="_1951950343872">
   <path class="fil0" d="M32.37 0l694.71 0c17.81,0 32.37,14.57 32.37,32.38l0 86.35c0,17.81 -14.57,32.38 -32.37,32.38l-694.71 0c-17.81,0 -32.37,-14.57 -32.37,-32.38l0 -86.35c0,-17.81 14.57,-32.38 32.37,-32.38z"/>
   <path class="fil0" d="M32.37 228.1l694.71 0c17.81,0 32.37,14.57 32.37,32.38l0 86.35c0,17.81 -14.57,32.38 -32.37,32.38l-694.71 0c-17.81,0 -32.37,-14.57 -32.37,-32.38l0 -86.35c0,-17.81 14.57,-32.38 32.37,-32.38z"/>
   <path class="fil0" d="M32.37 457.31l694.71 0c17.81,0 32.37,14.57 32.37,32.38l0 86.35c0,17.81 -14.57,32.38 -32.37,32.38l-694.71 0c-17.81,0 -32.37,-14.57 -32.37,-32.38l0 -86.35c0,-17.81 14.57,-32.38 32.37,-32.38z"/>
  </g>
 </g>
</svg>
