<?xml version="1.0" encoding="UTF-8"?>
<!DOCTYPE svg PUBLIC "-//W3C//DTD SVG 1.1//EN" "http://www.w3.org/Graphics/SVG/1.1/DTD/svg11.dtd">
<svg xmlns="http://www.w3.org/2000/svg" xml:space="preserve" width="48px" height="50px" version="1.1" style="shape-rendering:geometricPrecision; text-rendering:geometricPrecision; image-rendering:optimizeQuality; fill-rule:evenodd; clip-rule:evenodd"
viewBox="0 0 32.02 33.2"
 xmlns:xlink="http://www.w3.org/1999/xlink">
 <defs>
  <style type="text/css">
   <![CDATA[
    .fil0 {fill:#999999}
   ]]>
  </style>
 </defs>
 <g id="x0020_1">
  <metadata id="0Layer"/>
  <g id="_1636969649760">
   <path class="fil0" d="M4.08 15.82l1.62 0 0 11.34c0,0.85 1.17,0.65 1.62,0.65l11.48 0c1.64,0 1.05,-0.28 2.38,1.05 0.14,0.15 0.53,0.47 0.6,0.57l-17.7 0 0 -13.61zm17.77 11.79c0.95,0 1.74,0.23 1.92,-0.6 0.07,-0.37 0.02,-6.93 0.02,-7.63 0.13,-0.09 0.17,-0.19 0.32,-0.19l3.76 0c0.16,0 0.19,0.1 0.33,0.19 0,0.77 -0.06,7.12 0.02,7.56 0.16,0.92 0.9,0.67 1.92,0.67l-0.73 0.76c-0.85,0.71 -3.07,3.1 -3.42,3.33l-4.14 -4.09zm-20.55 -13.67l0 -6.03c0,-0.29 0.12,-0.65 0.39,-0.65l14.84 0c0.3,0 0.45,0.15 0.45,0.45l0 6.29c0,0.39 -0.26,0.52 -0.64,0.52l-14.46 0c-0.32,0 -0.58,-0.26 -0.58,-0.58zm5.77 -12.64l15.23 0 0 3.63c0,0.38 0.33,0.71 0.71,0.71l3.63 0 0 12.19 -2.4 0c-0.99,0 -1.81,0.76 -1.81,1.75l0 6.74 -1.56 0c-0.35,0 -0.36,0.13 -0.71,0.13l-13.09 0 0 -10.63 9.59 0c0.95,0 1.68,-0.9 1.68,-2.01l0 -5.9c0,-0.6 -0.18,-1.07 -0.47,-1.41 -0.25,-0.3 -0.8,-0.6 -1.34,-0.6l-9.46 0 0 -4.6zm-2.99 2.98l1.62 0 0 1.62 -1.62 0 0 -1.62zm19.58 -2.01l2.03 1.99 -2.03 0.02 0 -2.01zm-17.96 -1.62l0 2.27c-0.71,0 -2.35,-0.12 -2.69,0.15 -0.08,0.06 -0.22,0.26 -0.22,0.37l0 2.46c-1.01,0 -1.59,-0.13 -2.26,0.53 -0.3,0.31 -0.53,0.64 -0.53,1.22l0 6.55c0,0.78 0.84,1.62 1.62,1.62l1.17 0 0 14.32c0,0.57 0.47,0.59 1.03,0.59 6.22,-0.04 12.62,0.07 18.81,-0.01 0.43,0 0.43,-0.06 0.66,0.18l1.65 1.66c1.21,1.21 1.56,0.55 2.72,-0.62l2.24 -2.24c0.49,-0.45 2.12,-1.81 2.12,-2.34 0,-1.3 -1.1,-1.04 -2.46,-1.04l0 -6.74c0,-1.05 -0.73,-1.55 -1.62,-1.75 0,-3.79 0,-7.57 0,-11.35 0,-2.3 0.32,-1.53 -1.93,-3.77l-2.14 -2.14c-0.21,-0.21 -0.48,-0.57 -0.86,-0.57l-16.79 0c-0.19,0 -0.52,0.3 -0.52,0.65z"/>
   <path class="fil0" d="M9.72 12.19c-0.47,0.11 -0.6,0.06 -1.16,0.06l0 -2.79c0.56,0 0.69,-0.04 1.16,0.07 0.11,0.45 0.12,2.4 0,2.66zm-2.52 -3.37l0 4.08c0,0.21 0.14,0.47 0.28,0.56 0.31,0.21 1.12,0.15 1.53,0.15 1.07,0 2.07,-0.45 2.07,-1.49l0 -2.53c0,-0.71 -0.71,-1.42 -1.42,-1.42l-1.95 0c-0.23,0 -0.51,0.37 -0.51,0.65z"/>
   <path class="fil0" d="M5.12 10.18l-0.91 0 0 -0.72c0.77,0 1.17,-0.12 1.17,0.46 0,0.15 -0.11,0.26 -0.26,0.26zm-2.27 -1.36l0 4.08c0,0.8 1.36,1.05 1.36,-0.26l0 -1.1 0.78 0c2.36,0 2.23,-3.37 0.13,-3.37 -1.18,0 -2.27,-0.24 -2.27,0.65z"/>
   <path class="fil0" d="M11.54 8.95l0 3.82c0,1.1 1.36,0.97 1.36,0.13l0 -1.36c1.23,0 1.75,0.17 1.75,-0.84 0,-0.67 -1.37,-0.52 -1.75,-0.52l0 -0.72 1.94 0c0.79,0 0.79,-1.29 0,-1.29l-2.65 0c-0.41,0 -0.65,0.36 -0.65,0.78z"/>
   <path class="fil0" d="M12.51 20.42l6.87 0c1.12,0 0.91,-1.36 0.13,-1.36l-7.13 0c-0.87,0 -0.97,1.36 0.13,1.36z"/>
   <path class="fil0" d="M12.51 23.4l6.87 0c1.12,0 0.91,-1.36 0.13,-1.36l-7.13 0c-0.87,0 -0.97,1.36 0.13,1.36z"/>
  </g>
 </g>
</svg>
