<?xml version="1.0" encoding="UTF-8" ?>
<!DOCTYPE svg PUBLIC "-//W3C//DTD SVG 1.1//EN" "http://www.w3.org/Graphics/SVG/1.1/DTD/svg11.dtd">
<svg width="204pt" height="236pt" viewBox="0 0 204 236" version="1.1" xmlns="http://www.w3.org/2000/svg">
<g id="#9a9a9aff">
<path fill="#9a9a9a" opacity="1.00" d=" M 101.08 0.00 L 101.37 0.00 C 106.97 -0.18 111.19 6.44 108.25 11.32 C 105.81 16.37 98.00 16.75 95.11 11.93 C 91.66 7.27 95.44 0.25 101.08 0.00 Z" />
<path fill="#9a9a9a" opacity="1.00" d=" M 99.15 35.27 C 102.97 33.80 107.67 36.36 108.78 40.24 C 110.11 43.75 108.10 48.09 104.67 49.55 C 100.97 51.44 96.01 49.46 94.49 45.63 C 92.50 41.69 95.00 36.51 99.15 35.27 Z" />
<path fill="#9a9a9a" opacity="1.00" d=" M 98.39 70.44 C 101.86 68.71 106.50 70.34 108.22 73.80 C 109.60 76.31 109.17 79.27 109.23 82.01 C 109.20 108.34 109.23 134.67 109.22 160.99 C 109.24 164.32 109.33 167.65 108.96 170.96 C 124.48 158.18 139.65 144.96 155.02 131.97 C 157.44 129.58 161.17 127.78 164.48 129.53 C 169.66 131.40 170.77 138.96 166.51 142.38 C 146.52 159.45 126.42 176.40 106.45 193.50 C 103.88 195.83 99.74 196.04 97.01 193.87 C 78.17 177.75 59.25 161.73 40.36 145.66 C 37.87 143.47 34.57 141.53 33.97 137.97 C 32.84 133.20 37.30 128.47 42.08 128.84 C 45.63 129.27 48.03 132.15 50.67 134.26 C 65.16 146.45 79.42 158.92 94.04 170.95 C 93.89 169.31 93.77 167.67 93.76 166.02 C 93.81 136.67 93.76 107.32 93.78 77.97 C 93.69 74.86 95.45 71.65 98.39 70.44 Z" />
<path fill="#9a9a9a" opacity="1.00" d=" M 0.00 180.93 C -0.43 176.46 3.28 171.78 7.97 172.18 C 12.04 172.06 15.61 175.85 15.40 179.89 C 15.53 188.58 15.32 197.28 15.47 205.97 C 15.63 212.03 19.98 217.62 25.76 219.39 C 29.73 220.59 33.94 220.10 38.03 220.18 C 82.73 220.17 127.43 220.20 172.13 220.17 C 179.75 220.47 187.03 214.34 187.52 206.64 C 187.83 197.37 187.37 188.08 187.71 178.81 C 188.05 173.60 194.45 170.50 198.90 173.01 C 201.56 174.66 203.42 177.72 203.34 180.89 C 203.38 187.60 203.28 194.31 203.36 201.02 C 203.63 209.46 201.35 218.26 195.79 224.78 C 189.84 231.97 180.45 235.73 171.26 236.00 L 32.90 236.00 C 22.60 236.07 11.96 231.55 5.89 223.03 C 2.13 218.00 0.23 211.77 0.00 205.52 L 0.00 180.93 Z" />
</g>
</svg>
